<svg width="98" height="17" viewBox="0 0 98 17" fill="none" xmlns="http://www.w3.org/2000/svg">
<path d="M1.04538 11.6093C0.553468 11.8604 0.358235 12.4627 0.609315 12.9547C0.860395 13.4466 1.46271 13.6418 1.95462 13.3907L1.04538 11.6093ZM97.3043 13.4526C97.8304 13.2846 98.1206 12.7218 97.9526 12.1957L95.2139 3.62254C95.0459 3.09644 94.4831 2.8062 93.957 2.97425C93.4309 3.14231 93.1407 3.70503 93.3088 4.23113L95.7431 11.8517L88.1225 14.2861C87.5964 14.4542 87.3062 15.0169 87.4742 15.543C87.6423 16.0691 88.205 16.3593 88.7311 16.1913L97.3043 13.4526ZM1.95462 13.3907C17.791 5.30754 58.932 -6.00986 96.5416 13.3888L97.4584 11.6113C59.068 -8.19008 17.209 3.35919 1.04538 11.6093L1.95462 13.3907Z" fill="#FD8415"/>
</svg>
