<svg width="77" height="77" viewBox="0 0 77 77" fill="none" xmlns="http://www.w3.org/2000/svg">
<g filter="url(#filter0_i_19_78)">
<circle cx="38.8689" cy="38.011" r="38.011" fill="#E9E9E9"/>
</g>
<g filter="url(#filter1_d_19_78)">
<circle cx="38.869" cy="38.011" r="32.295" fill="#FD8415"/>
</g>
<g filter="url(#filter2_d_19_78)">
<circle cx="38.869" cy="38.011" r="32.0092" stroke="url(#paint0_linear_19_78)" stroke-width="0.571594" shape-rendering="crispEdges"/>
</g>
<mask id="mask0_19_78" style="mask-type:alpha" maskUnits="userSpaceOnUse" x="6" y="5" width="66" height="66">
<circle cx="38.869" cy="38.011" r="32.295" fill="#FD8415"/>
</mask>
<g mask="url(#mask0_19_78)">
<path d="M52.5872 70.5918L24.8649 42.8695L26.0081 40.5832L26.5796 38.5826L25.7223 35.153L22.5785 32.0093L34.0104 20.5774L37.4399 23.7212L40.2979 24.5785L51.444 35.7246H53.4445L42.2985 24.5785L50.3008 27.7223L82.8816 60.3031L52.5872 70.5918Z" fill="url(#paint1_linear_19_78)" fill-opacity="0.26"/>
</g>
<path d="M54.8158 38.5365H42.5939C41.4584 38.5365 40.5355 39.4593 40.5355 40.5949V52.8146C40.5355 53.9501 41.4583 54.873 42.5939 54.873H54.8158C55.9513 54.873 56.8742 53.9502 56.8742 52.8146V40.5949C56.8742 39.4594 55.9514 38.5365 54.8158 38.5365ZM54.3418 50.8467H48.0207V51.1616C48.0207 51.4731 47.7678 51.726 47.4563 51.726H45.6943C45.3828 51.726 45.1298 51.4731 45.1298 51.1616V50.8467H43.068C42.7565 50.8467 42.5036 50.5938 42.5036 50.2823C42.5036 49.9707 42.7565 49.7178 43.068 49.7178H45.1298V49.403C45.1298 49.0914 45.3828 48.8385 45.6943 48.8385H47.4563C47.7678 48.8385 48.0207 49.0914 48.0207 49.403V49.7178H54.3418C54.6533 49.7178 54.9062 49.9707 54.9062 50.2823C54.9062 50.5938 54.6533 50.8467 54.3418 50.8467ZM54.3418 47.2675H52.2799V47.5857C52.2799 47.8973 52.027 48.1502 51.7155 48.1502H49.9535C49.642 48.1502 49.389 47.8973 49.389 47.5857V47.2675H43.068C42.7565 47.2675 42.5036 47.0146 42.5036 46.7031C42.5036 46.3916 42.7565 46.1387 43.068 46.1387H49.389V45.8238C49.389 45.5123 49.642 45.2594 49.9535 45.2594H51.7155C52.027 45.2594 52.2799 45.5123 52.2799 45.8238V46.1387H54.3418C54.6533 46.1387 54.9062 46.3916 54.9062 46.7031C54.9062 47.0146 54.6533 47.2675 54.3418 47.2675ZM54.3418 43.6917H48.0207V44.0066C48.0207 44.3181 47.7678 44.571 47.4563 44.571H45.6943C45.3828 44.571 45.1298 44.3181 45.1298 44.0066V43.6917H43.068C42.7565 43.6917 42.5036 43.4388 42.5036 43.1273C42.5036 42.8158 42.7565 42.5629 43.068 42.5629H45.1298V42.2447C45.1298 41.9331 45.3828 41.6802 45.6943 41.6802H47.4563C47.7678 41.6802 48.0207 41.9331 48.0207 42.2447V42.5629H54.3418C54.6533 42.5629 54.9062 42.8158 54.9062 43.1273C54.9062 43.4388 54.6533 43.6917 54.3418 43.6917ZM42.2087 24.1329C42.2774 23.8281 42.5788 23.6372 42.8837 23.7059C48.5199 24.9704 52.8124 29.4774 53.8526 35.0916L54.1156 34.7298C54.2998 34.4769 54.6515 34.4217 54.9044 34.6059C55.1573 34.7901 55.2126 35.1418 55.0284 35.3947L53.938 36.892C53.8492 37.0126 53.7169 37.0947 53.5695 37.1182C53.541 37.1232 53.5109 37.1249 53.4824 37.1249C53.3635 37.1249 53.2479 37.088 53.1508 37.016L51.6501 35.924C51.3972 35.7397 51.3419 35.388 51.5261 35.1351C51.7104 34.8822 52.0621 34.827 52.315 35.0112L52.7505 35.3277C51.8025 30.1423 47.8414 25.9739 42.6391 24.8081C42.3342 24.7394 42.1433 24.438 42.212 24.1331L42.2087 24.1329ZM39.1218 51.5269C39.0967 51.8217 38.8505 52.0444 38.5591 52.0444C38.544 52.0444 38.5273 52.0428 38.5105 52.0428C35.4773 51.7882 32.6534 50.6007 30.3419 48.6076C28.3571 46.8943 26.9017 44.7203 26.0876 42.2684L25.8783 42.6603C25.7761 42.8513 25.5818 42.9584 25.3808 42.9584C25.2904 42.9584 25.1999 42.9367 25.1145 42.8915C24.8398 42.7441 24.736 42.4024 24.8834 42.1277L25.7577 40.4931C25.9051 40.2184 26.2467 40.1146 26.5214 40.262L28.1561 41.1363C28.4308 41.2836 28.5346 41.6253 28.3873 41.9C28.2399 42.1746 27.8982 42.2785 27.6235 42.1311L27.1495 41.8765C28.7959 46.8879 33.2797 50.4702 38.606 50.9174C38.9175 50.9442 39.147 51.2171 39.1218 51.5269ZM26.5716 38.5367L28.6334 37.778L29.9733 38.3341L30.8945 40.3272H34.0115L34.9327 38.3341L36.2726 37.778L38.3327 38.5367L40.5386 36.3343L39.7782 34.2726L40.3343 32.9327L42.3274 32.0115V28.8947L40.3343 27.9735L39.7782 26.6336L40.5386 24.5736L38.3327 22.3678L36.2726 23.1282L34.9327 22.5738L34.0115 20.5774H30.8945L29.9733 22.5738L28.6334 23.1282L26.5716 22.3678L24.3691 24.5736L25.1278 26.6336L24.5717 27.9735L22.5786 28.8947V32.0115L24.5717 32.9327L25.1278 34.2726L24.3691 36.3343L26.5716 38.5367ZM32.4522 26.0422C34.8859 26.0422 36.8656 28.0202 36.8656 30.4537C36.8656 32.8856 34.8859 34.8653 32.4522 34.8653C30.0186 34.8653 28.0406 32.8873 28.0406 30.4537C28.0406 28.0218 30.0186 26.0422 32.4522 26.0422ZM29.1711 30.4537C29.1711 28.6432 30.6434 27.1727 32.4522 27.1727C34.2611 27.1727 35.7367 28.6449 35.7367 30.4537C35.7367 32.2625 34.2628 33.7347 32.4522 33.7347C30.6417 33.7347 29.1711 32.2625 29.1711 30.4537Z" fill="white"/>
<defs>
<filter id="filter0_i_19_78" x="0.85791" y="0" width="76.022" height="76.5936" filterUnits="userSpaceOnUse" color-interpolation-filters="sRGB">
<feFlood flood-opacity="0" result="BackgroundImageFix"/>
<feBlend mode="normal" in="SourceGraphic" in2="BackgroundImageFix" result="shape"/>
<feColorMatrix in="SourceAlpha" type="matrix" values="0 0 0 0 0 0 0 0 0 0 0 0 0 0 0 0 0 0 127 0" result="hardAlpha"/>
<feOffset dy="0.571594"/>
<feGaussianBlur stdDeviation="1.14319"/>
<feComposite in2="hardAlpha" operator="arithmetic" k2="-1" k3="1"/>
<feColorMatrix type="matrix" values="0 0 0 0 0 0 0 0 0 0 0 0 0 0 0 0 0 0 0.13 0"/>
<feBlend mode="normal" in2="shape" result="effect1_innerShadow_19_78"/>
</filter>
<filter id="filter1_d_19_78" x="4.2876" y="4.57276" width="70.306" height="70.306" filterUnits="userSpaceOnUse" color-interpolation-filters="sRGB">
<feFlood flood-opacity="0" result="BackgroundImageFix"/>
<feColorMatrix in="SourceAlpha" type="matrix" values="0 0 0 0 0 0 0 0 0 0 0 0 0 0 0 0 0 0 127 0" result="hardAlpha"/>
<feOffset dx="0.571594" dy="1.71478"/>
<feGaussianBlur stdDeviation="1.42898"/>
<feComposite in2="hardAlpha" operator="out"/>
<feColorMatrix type="matrix" values="0 0 0 0 0 0 0 0 0 0 0 0 0 0 0 0 0 0 0.25 0"/>
<feBlend mode="normal" in2="BackgroundImageFix" result="effect1_dropShadow_19_78"/>
<feBlend mode="normal" in="SourceGraphic" in2="effect1_dropShadow_19_78" result="shape"/>
</filter>
<filter id="filter2_d_19_78" x="4.2876" y="4.57276" width="70.306" height="70.306" filterUnits="userSpaceOnUse" color-interpolation-filters="sRGB">
<feFlood flood-opacity="0" result="BackgroundImageFix"/>
<feColorMatrix in="SourceAlpha" type="matrix" values="0 0 0 0 0 0 0 0 0 0 0 0 0 0 0 0 0 0 127 0" result="hardAlpha"/>
<feOffset dx="0.571594" dy="1.71478"/>
<feGaussianBlur stdDeviation="1.42898"/>
<feComposite in2="hardAlpha" operator="out"/>
<feColorMatrix type="matrix" values="0 0 0 0 0 0 0 0 0 0 0 0 0 0 0 0 0 0 0.25 0"/>
<feBlend mode="normal" in2="BackgroundImageFix" result="effect1_dropShadow_19_78"/>
<feBlend mode="normal" in="SourceGraphic" in2="effect1_dropShadow_19_78" result="shape"/>
</filter>
<linearGradient id="paint0_linear_19_78" x1="12.0041" y1="18.0052" x2="77.4516" y2="63.7327" gradientUnits="userSpaceOnUse">
<stop stop-color="white"/>
<stop offset="1" stop-color="#242424" stop-opacity="0.19"/>
</linearGradient>
<linearGradient id="paint1_linear_19_78" x1="30.0092" y1="26.8649" x2="65.448" y2="66.0191" gradientUnits="userSpaceOnUse">
<stop/>
<stop offset="1" stop-opacity="0"/>
</linearGradient>
</defs>
</svg>
