<svg width="178" height="50" viewBox="0 0 178 50" fill="none" xmlns="http://www.w3.org/2000/svg">
<path d="M34.985 28.964C34.9669 30.8868 34.116 32.209 32.7157 33.2228C31.5508 34.0662 30.2386 34.6099 28.8552 34.9477C27.5599 35.2635 26.242 35.4883 24.9317 35.7417C23.7206 35.9765 22.5307 36.2742 21.4438 36.8829C20.3938 37.471 19.5941 38.2726 19.3394 39.4968C19.1365 40.4706 19.297 41.4233 19.5916 42.3553C20.0711 43.871 20.8445 45.2388 21.7616 46.5261C22.1986 47.1391 22.6812 47.7203 23.155 48.3059C23.3548 48.5531 23.4996 48.8103 23.4353 49.1356C23.3635 49.497 23.1737 49.7798 22.801 49.8784C22.3996 49.9846 22.0513 49.856 21.7816 49.5507C20.9488 48.6093 20.2059 47.5992 19.5448 46.5305C18.7045 45.172 18.0016 43.7506 17.6333 42.1843C17.2637 40.613 17.2831 39.0766 18.0865 37.6233C18.7208 36.4759 19.6953 35.6943 20.8439 35.1112C22.2261 34.4089 23.7118 34.0525 25.2338 33.8215C26.8813 33.5711 28.5106 33.2471 30.057 32.5979C30.748 32.3076 31.4004 31.9524 31.9741 31.4617C33.051 30.5409 33.3637 29.3954 32.9667 28.0501C32.7051 27.1642 32.2369 26.3895 31.6464 25.6834C30.1587 23.9036 28.6704 22.1232 27.1922 20.3359C27.0617 20.1786 26.9556 19.9744 26.9131 19.7759C26.8288 19.3795 27.0654 18.9843 27.4356 18.8114C27.809 18.6372 28.2453 18.7265 28.5275 19.0605C29.2629 19.9307 29.9902 20.8078 30.7206 21.6825C31.5402 22.6644 32.3668 23.6396 33.1765 24.6297C34.0298 25.6734 34.6466 26.8377 34.8907 28.1768C34.9463 28.4821 34.9656 28.7936 34.9856 28.9621L34.985 28.964Z" fill="#FD8415"/>
<path d="M21.2971 21.0693C21.8246 21.8366 22.3247 22.5638 22.8241 23.2899C24.401 25.5816 25.9779 27.8733 27.5548 30.165C27.5767 30.1975 27.5998 30.2293 27.6204 30.2624C27.892 30.6925 27.8589 31.2338 27.5436 31.5272C27.1759 31.8693 26.6534 31.8274 26.35 31.4073C26.0073 30.9341 25.6826 30.4447 25.3505 29.9615C23.4996 27.2702 21.6486 24.579 19.8001 21.8859C19.6996 21.7392 19.5954 21.5837 19.536 21.4127C19.4243 21.0899 19.4905 20.7878 19.6796 20.5162C20.189 19.7858 20.8052 19.1884 21.4632 18.6459C23.1 17.2968 24.9179 16.371 26.8263 15.6637C29.3702 14.7204 31.9878 14.2117 34.6447 13.937C37.4228 13.6498 40.2033 13.6504 42.9857 13.8078C43.1355 13.8165 43.2859 13.829 43.4351 13.8446C43.8815 13.8927 44.2211 14.319 44.1968 14.7985C44.1705 15.3241 43.8053 15.6968 43.3378 15.6862C41.8289 15.6519 40.3194 15.5813 38.8105 15.5976C36.1311 15.6256 33.4667 15.881 30.8304 16.4547C28.7666 16.9042 26.7483 17.5341 24.8255 18.5204C23.6656 19.1153 22.5588 19.8127 21.5955 20.7778C21.4994 20.8739 21.4008 20.9676 21.2965 21.0687L21.2971 21.0693Z" fill="#FD8415"/>
<path d="M45.7144 47.9182C45.7144 48.2984 45.5046 48.5462 45.195 48.7216C44.8841 48.8977 44.5639 48.8721 44.2948 48.6555C43.9833 48.4045 43.6992 48.118 43.4121 47.837C39.5253 44.0371 35.6405 40.2352 31.7544 36.4347C31.3136 36.0039 31.2699 35.4589 31.6464 35.0619C32.0328 34.6542 32.5934 34.6655 33.041 35.1025C36.2136 38.2026 39.3836 41.3046 42.5543 44.406C43.4864 45.3175 44.4172 46.2302 45.3511 47.1397C45.5721 47.3551 45.7156 47.6011 45.7138 47.9182H45.7144Z" fill="#FD8415"/>
<path d="M5.95807 21.1892C6.04235 20.5636 6.10228 19.935 6.21839 19.3145C6.32764 18.7308 6.87887 18.4124 7.48754 18.5298C8.05813 18.6396 8.3815 19.1241 8.2579 19.6878C8.06812 20.5499 8.01505 21.4145 8.25415 22.2735C8.61498 23.572 9.55514 24.2712 11.1227 24.426C12.3038 24.5421 13.4637 24.4042 14.6093 24.1595C15.2098 24.0309 15.8035 23.8748 16.3978 23.7243C17.0377 23.562 17.6033 23.7943 17.7868 24.3024C17.9685 24.805 17.6551 25.3031 17.0308 25.4898C15.2997 26.0067 13.5418 26.4087 11.6983 26.3919C10.1569 26.3775 8.77355 25.988 7.64798 25.001C6.63603 24.1139 6.19217 23.0102 6.05546 21.7847C6.03361 21.5893 6.02424 21.3921 6.00926 21.196C5.9924 21.1942 5.97555 21.1917 5.95869 21.1898L5.95807 21.1892Z" fill="#FD8415"/>
<path d="M0 12.561C0 12.561 0 16.9828 7.06679 16.9828C14.1336 16.9828 13.9688 12.561 13.9688 12.561H0Z" fill="#FD8415"/>
<path d="M5.50983 11.2456C5.50983 11.2456 3.19939 12.1377 2.27797 9.43213C2.27797 9.43213 1.88342 8.5544 1.89778 6.79956C1.89778 6.79956 6.11039 7.01868 6.08042 10.3823C6.08042 10.3823 5.50983 9.40216 3.8424 8.74418C3.8424 8.74418 5.26075 10.3966 5.50983 11.245V11.2456Z" fill="#FD8415"/>
<path d="M7.04558 10.2513C7.04558 10.2513 6.50433 6.53682 12.0323 5.76147C12.0323 5.76147 12.7783 11.684 7.77661 11.2014C7.77661 11.2014 8.17115 9.51961 9.99965 7.96953C9.99965 7.96953 8.37653 7.92583 7.04558 10.2506V10.2513Z" fill="#FD8415"/>
<path d="M54.6346 19.4599C54.3193 19.6222 54.0159 19.7789 53.6963 19.9437C53.6776 19.9081 53.6601 19.8726 53.6414 19.8376C53.3498 19.2751 53.0639 18.7095 52.7655 18.1508C52.2049 17.1008 51.4046 16.2761 50.382 15.6712C49.136 14.9345 47.7869 14.643 46.3474 14.7935C45.2961 14.9033 44.3322 15.2629 43.4526 15.8479C42.2777 16.6301 41.4481 17.6901 40.9617 19.0104C40.4898 20.2921 40.4292 21.5999 40.7751 22.9253C40.9293 23.5152 41.1846 24.0621 41.4662 24.5983C41.6828 25.011 41.8932 25.4261 42.106 25.8406C42.1154 25.8587 42.1223 25.8781 42.1329 25.9031C41.8251 26.0616 41.5198 26.2189 41.204 26.3825C41.0629 26.1091 40.9218 25.84 40.7851 25.5691C40.5578 25.1183 40.3231 24.6707 40.1115 24.2125C39.8405 23.6251 39.6782 23.0027 39.5833 22.364C39.4816 21.6767 39.4753 20.9875 39.5665 20.2977C39.6995 19.287 40.0197 18.3393 40.5297 17.4566C41.0829 16.4996 41.8126 15.7005 42.7184 15.0688C43.849 14.2803 45.1038 13.8183 46.4803 13.7216C48.2539 13.5967 49.8801 14.0381 51.3522 15.0394C52.1475 15.5807 52.8192 16.2499 53.338 17.0583C53.6376 17.5259 53.8842 18.0278 54.1489 18.5179C54.315 18.825 54.4704 19.1378 54.6358 19.4587L54.6346 19.4599Z" fill="#FD8415"/>
<path d="M43.8522 21.5968C43.6362 21.1779 43.4258 20.7703 43.2117 20.3545C43.3783 20.2684 43.5394 20.1853 43.7111 20.0967C43.9277 20.5174 44.1468 20.9419 44.3634 21.3621C44.4833 21.206 44.5869 21.0468 44.7149 20.9095C45.4984 20.0667 46.8955 20.1391 47.5997 21.0499C47.9199 21.4651 48.0429 21.932 47.998 22.4489C47.988 22.5626 47.9761 22.6762 47.9755 22.7904C47.9755 22.8735 47.9443 22.9172 47.8694 22.9552C46.8868 23.4584 45.9054 23.9659 44.924 24.4716C44.3397 24.7731 43.7548 25.0734 43.1711 25.3774C43.1118 25.408 43.0693 25.4124 43.0125 25.3724C42.7834 25.2126 42.5287 25.0828 42.3233 24.8967C41.5423 24.19 41.508 22.9633 42.2322 22.1974C42.6467 21.7585 43.1598 21.5631 43.7604 21.5931C43.7866 21.5943 43.8135 21.5949 43.8515 21.5962L43.8522 21.5968Z" fill="#FD8415"/>
<path d="M48.9531 22.3858C48.9425 22.078 48.9232 21.789 48.9238 21.5C48.9257 20.6578 49.0424 19.8307 49.2965 19.0266C49.485 18.4292 49.7285 17.8573 50.173 17.3972C50.3309 17.233 50.5151 17.1019 50.7448 17.0607C51.0569 17.0046 51.2979 17.1407 51.4939 17.3679C51.7486 17.6625 51.8866 18.0159 51.9865 18.3861C52.1875 19.1321 52.2224 19.8918 52.17 20.6578C52.1675 20.6965 52.1357 20.7496 52.1026 20.7671C51.0763 21.3002 50.0481 21.8296 49.0205 22.3596C49.0087 22.3658 48.9956 22.3696 48.9531 22.3858Z" fill="#FD8415"/>
<path d="M48.8132 18.5654C48.3263 18.8189 47.7339 18.6247 47.476 18.1278C47.2351 17.6615 47.4311 17.0553 47.9037 16.8081C48.3856 16.5553 48.998 16.7494 49.249 17.2351C49.4968 17.7133 49.3002 18.3126 48.8126 18.566L48.8132 18.5654Z" fill="#FD8415"/>
<path d="M47.2987 20.3827C47.0815 19.9751 47.2432 19.465 47.6589 19.244C48.066 19.0274 48.5866 19.1797 48.7989 19.5612C49.0473 20.0088 48.8769 20.5319 48.4668 20.7517C48.0373 20.9814 47.5316 20.821 47.2987 20.3833V20.3827Z" fill="#FD8415"/>
<path d="M45.0551 18.8918C45.3092 19.8339 44.9434 20.4763 44.1356 20.8421C44.04 20.4931 44.0176 20.1473 44.1349 19.8058C44.2891 19.3569 44.6387 19.0972 45.0551 18.8918Z" fill="#FD8415"/>
<path d="M22.0306 14.7824C21.1167 14.7824 20.2802 14.5689 19.5279 14.1412C17.627 13.0612 16.8304 10.9231 16.5464 9.89554C16.4621 9.59089 16.6594 9.28 16.9709 9.22632L17.4772 9.13892L16.9447 9.23068L16.9834 9.22382C17.2543 9.17637 17.5159 9.34243 17.5902 9.60712C17.833 10.4761 18.5141 12.3252 20.0667 13.2042C21.1261 13.8041 22.4352 13.8584 23.9634 13.3678C24.2356 13.2804 24.529 13.4171 24.6314 13.6836L24.6351 13.6942C24.7443 13.9795 24.5939 14.3004 24.3036 14.3941C23.5008 14.6531 22.7423 14.783 22.0306 14.783V14.7824Z" fill="#FD8415"/>
<path d="M18.2107 12.2315C18.2107 12.2315 21.9763 12.6429 23.5564 10.0022C23.5564 10.0022 23.9565 12.3026 19.7096 13.4682L18.2107 12.2315Z" fill="#FD8415"/>
<path d="M22.5931 10.0028C22.5931 10.0028 23.7618 9.99964 24.0377 11.2301C24.0377 11.2301 24.3623 9.62258 22.5931 10.0028Z" fill="#FD8415"/>
<path d="M47.9924 26.5436C47.8613 26.4899 47.7221 26.5006 47.5735 26.5755C47.428 26.6491 47.3269 26.7559 47.2701 26.8951C47.2133 27.0343 47.2114 27.1885 47.2639 27.3589L48.3158 26.8252C48.2309 26.6916 48.1235 26.5979 47.9924 26.5443V26.5436Z" fill="#FD8415"/>
<path d="M54.3525 23.3973C54.1827 23.333 54.0122 23.3436 53.8424 23.4298C53.6726 23.5159 53.5628 23.647 53.5128 23.8231C53.4629 23.9991 53.4854 24.1801 53.5803 24.3662C53.6733 24.5497 53.8056 24.6739 53.9779 24.7389C54.1502 24.8044 54.3213 24.7938 54.4911 24.7077C54.6609 24.6215 54.7695 24.4898 54.8176 24.3131C54.865 24.1364 54.8425 23.956 54.7495 23.7725C54.6553 23.5865 54.5229 23.461 54.3525 23.3967V23.3973Z" fill="#FD8415"/>
<path d="M44.954 27.9401C44.7811 28.0275 44.6718 28.1592 44.6244 28.3334C44.5776 28.5082 44.6013 28.6886 44.6955 28.8747C44.7886 29.0582 44.9197 29.183 45.0895 29.2498C45.2586 29.3166 45.4297 29.306 45.6026 29.2186C45.7699 29.1337 45.876 29.0026 45.9216 28.8253C45.9672 28.648 45.9441 28.4689 45.8523 28.2878C45.7593 28.1043 45.6282 27.9794 45.4584 27.9126C45.2886 27.8458 45.1207 27.8552 44.9534 27.9401H44.954Z" fill="#FD8415"/>
<path d="M55.0279 19.8632C50.4695 22.2142 45.9198 24.5602 41.3613 26.9112C42.799 28.7422 44.2317 30.567 45.6688 32.3974C49.4507 30.4471 53.225 28.5006 57 26.5535C56.342 24.3211 55.6859 22.0956 55.0279 19.8625V19.8632ZM49.5662 23.9609C49.5943 23.8723 49.6511 23.8061 49.7372 23.7624C49.8234 23.7187 49.912 23.7118 50.0019 23.7424C50.0918 23.773 50.1586 23.8298 50.2011 23.9135C50.2435 23.9971 50.2504 24.0845 50.2217 24.175C50.1929 24.2656 50.1355 24.333 50.0494 24.3767C49.9632 24.4204 49.8758 24.4272 49.7878 24.3973C49.6998 24.3673 49.6336 24.3093 49.5899 24.2231C49.5462 24.137 49.5381 24.0496 49.5662 23.9603V23.9609ZM46.5665 29.2529L46.3156 28.9782C46.2469 29.3184 46.0459 29.5731 45.7113 29.7429C45.431 29.8853 45.1457 29.8971 44.856 29.7773C44.5664 29.658 44.3429 29.4433 44.1855 29.133C44.0282 28.8228 43.987 28.5156 44.0613 28.2116C44.1362 27.9076 44.3135 27.6841 44.5938 27.5417C44.8854 27.3938 45.175 27.3876 45.4641 27.5224L44.8423 26.2963L45.3479 26.0397L46.8936 29.0862L46.5659 29.2523L46.5665 29.2529ZM48.9044 28.0356C48.7983 28.1473 48.6591 28.2466 48.4862 28.3346C48.1709 28.495 47.8563 28.5219 47.5429 28.4164C47.2295 28.3109 46.9942 28.1017 46.835 27.7883C46.6776 27.4781 46.6489 27.1647 46.7494 26.8476C46.8499 26.5304 47.0497 26.2957 47.3487 26.144C47.6615 25.9854 47.9587 25.9667 48.239 26.0891C48.5199 26.2114 48.7409 26.4312 48.9026 26.7495L48.9968 26.9356L47.4511 27.7197C47.556 27.8533 47.6802 27.9338 47.8238 27.9631C47.9674 27.9919 48.1185 27.9663 48.2777 27.8851C48.3938 27.8264 48.4862 27.7615 48.5555 27.691C48.6248 27.6204 48.6953 27.5193 48.7677 27.3876L49.1747 27.6085C49.0998 27.7821 49.0093 27.9244 48.9032 28.0362L48.9044 28.0356ZM49.9158 27.553L48.3701 24.5065L48.8757 24.2499L50.4214 27.2964L49.9158 27.553ZM51.0569 26.9743L49.9851 24.8624L50.4907 24.6058L51.5626 26.7177L51.0569 26.9743ZM52.2705 26.3581L51.4327 24.7075L51.1537 24.8493L50.924 24.396L51.203 24.2543L51.0757 24.0034C50.9496 23.7555 50.9196 23.5383 50.9845 23.3529C51.0494 23.1675 51.1918 23.0189 51.4103 22.9078C51.5938 22.8147 51.7855 22.7648 51.9859 22.7586L52.0414 23.2492C51.8916 23.268 51.768 23.3017 51.6706 23.351C51.5114 23.4315 51.4789 23.5651 51.5738 23.7512L51.7012 24.0021L52.3442 23.6756L52.5739 24.1288L51.939 24.451L52.7768 26.1015L52.2711 26.3581H52.2705ZM54.7245 25.1689C54.4118 25.3274 54.0971 25.3543 53.7806 25.2488C53.4641 25.1433 53.2275 24.9354 53.0696 24.6251C52.9123 24.3149 52.8842 24.0009 52.9859 23.6831C53.0877 23.3654 53.295 23.1269 53.6077 22.9683C53.9205 22.8097 54.2351 22.7829 54.5516 22.8884C54.8681 22.9939 55.1054 23.2018 55.2627 23.5121C55.42 23.8223 55.4481 24.1363 55.3463 24.4541C55.2446 24.7718 55.0373 25.0103 54.7245 25.1689Z" fill="#FD8415"/>
<path d="M17.5671 8.12497C18.6384 8.00636 19.6946 7.80347 20.7372 7.53066C21.6567 7.28969 22.5594 6.99379 23.4378 6.62796C23.5115 6.59737 23.5595 6.60986 23.6201 6.65356C24.2394 7.09679 24.8973 7.46824 25.6227 7.71108C26.3051 7.93956 27.0043 8.03695 27.7222 7.94393C28.6436 7.82407 29.4364 7.42578 30.1238 6.80838C30.4759 6.49249 30.7849 6.13978 31.0271 5.7315C31.1844 5.46681 31.1413 5.20774 30.9066 5.00485C30.7 4.82631 30.4478 4.73329 30.1943 4.64776C29.6031 4.44862 28.9926 4.32876 28.3795 4.22326C28.01 4.15958 27.6392 4.10277 27.2677 4.05033C27.1891 4.0391 27.1497 4.00351 27.1154 3.94046C26.684 3.152 26.1528 2.43721 25.5091 1.80919C24.8824 1.1974 24.1769 0.70547 23.3498 0.399576C22.4876 0.0811956 21.6055 0.0119011 20.7041 0.182952C19.7152 0.370859 18.8132 0.766025 17.9991 1.35472C16.9541 2.11009 16.2805 3.12016 15.9846 4.37745C15.7592 5.33509 15.7673 6.29585 15.9584 7.25723C16.0046 7.48884 16.0601 7.71982 16.1263 7.94643C16.185 8.14745 16.2992 8.21736 16.5052 8.20675C16.6875 8.19739 16.8704 8.18802 17.0527 8.17367C17.225 8.16055 17.3967 8.1412 17.5684 8.12435L17.5671 8.12497ZM23.2137 6.0168C23.1775 6.03428 23.1625 6.04239 23.1469 6.04864C22.2336 6.41883 21.299 6.72597 20.342 6.95945C19.8688 7.07494 19.3912 7.17295 18.9137 7.26659C18.202 7.40581 17.4835 7.49695 16.7599 7.54877C16.7 7.55314 16.6732 7.53441 16.6619 7.4776C16.6376 7.35462 16.6057 7.23351 16.5833 7.11053C16.4403 6.31083 16.4135 5.50989 16.5733 4.70894C16.7474 3.83433 17.1289 3.06585 17.7513 2.42285C18.27 1.8866 18.8924 1.50954 19.5685 1.20427C19.7546 1.11999 19.8844 1.15307 20.0417 1.24921C20.9669 1.81293 21.6842 2.57704 22.2398 3.49972C22.5588 4.02973 22.8029 4.59345 22.9858 5.18339C23.0707 5.45745 23.1375 5.7365 23.2137 6.01805V6.0168ZM23.8149 5.76022C23.3398 3.74319 22.3678 2.06452 20.6504 0.860914C21.0144 0.754788 21.6168 0.714834 22.0251 0.755412C22.8391 0.835943 23.5714 1.12873 24.2381 1.59444C25.1333 2.21934 25.8163 3.03776 26.3819 3.96106C26.4356 4.04908 26.4855 4.1396 26.5392 4.23262C25.6733 4.82693 24.7725 5.32822 23.8149 5.76022ZM24.2231 6.29897C24.2575 6.27462 24.265 6.26776 24.2737 6.26339C25.2201 5.82452 26.124 5.31074 26.9824 4.71706C27.0186 4.69209 27.0773 4.68147 27.1223 4.68772C27.5568 4.75139 27.9937 4.80383 28.4239 4.89248C28.9558 5.00173 29.4826 5.13719 30.0095 5.27204C30.1562 5.30949 30.2929 5.38628 30.4652 5.45745C30.2642 5.69467 30.0982 5.91754 29.9046 6.11481C29.09 6.94697 28.1136 7.39332 26.9306 7.31903C26.2476 7.27596 25.6128 7.06058 25.0103 6.7472C24.7475 6.61048 24.4941 6.45441 24.2225 6.29959L24.2231 6.29897Z" fill="#FD8415"/>
<path d="M16.4671 8.30164C16.238 8.30164 16.1007 8.19676 16.0351 7.97327C15.9696 7.74978 15.9128 7.51505 15.8653 7.27595C15.6649 6.2665 15.6737 5.28389 15.8922 4.35685C16.1924 3.08208 16.8823 2.04641 17.9429 1.2798C18.7732 0.679245 19.6959 0.279709 20.6853 0.0918025C21.6043 -0.08237 22.5113 -0.00870566 23.381 0.312796C24.1682 0.603083 24.8855 1.07129 25.5734 1.74301C26.207 2.36166 26.7533 3.08645 27.1965 3.89613C27.2209 3.94045 27.2371 3.95232 27.2796 3.95856C27.6866 4.01599 28.0512 4.07218 28.3945 4.13148C28.9888 4.23386 29.6212 4.35685 30.2236 4.55973C30.4908 4.64963 30.7486 4.74639 30.9671 4.9343C31.2368 5.16715 31.288 5.47492 31.107 5.77957C30.8747 6.17036 30.5732 6.52994 30.1855 6.87829C29.4601 7.52941 28.6355 7.91896 27.7334 8.03694C27.0392 8.12746 26.3388 8.05005 25.5921 7.80034C24.9192 7.57498 24.2562 7.22476 23.5645 6.72971C23.522 6.69912 23.5083 6.69975 23.4727 6.71473C22.6287 7.0662 21.716 7.37147 20.7603 7.6218C19.6884 7.90272 18.6177 8.10312 17.5771 8.21861H17.5758C17.5234 8.2236 17.4703 8.22922 17.4179 8.23421C17.3005 8.24608 17.1788 8.25856 17.0583 8.26793C16.8704 8.28228 16.6781 8.29227 16.5083 8.30101C16.494 8.30164 16.4802 8.30226 16.4665 8.30226L16.4671 8.30164ZM21.648 0.186692C21.3408 0.186692 21.0312 0.216033 20.7203 0.275339C19.7583 0.458252 18.8606 0.84655 18.0528 1.43087C17.0296 2.17064 16.3641 3.16948 16.0745 4.3993C15.8622 5.30075 15.8535 6.25589 16.0489 7.23912C16.0951 7.47322 16.1512 7.70233 16.2149 7.9202C16.2599 8.07315 16.331 8.12247 16.499 8.1131C16.6675 8.10437 16.8579 8.09438 17.0439 8.08064C17.1619 8.07128 17.2824 8.05942 17.3985 8.04756C17.451 8.04194 17.504 8.03694 17.5565 8.03195C18.5878 7.91771 19.6497 7.71856 20.7122 7.44014C21.6598 7.1923 22.5638 6.88953 23.4003 6.54118C23.5245 6.48937 23.6076 6.53057 23.6731 6.57677C24.3492 7.06058 24.996 7.40268 25.6508 7.6218C26.3694 7.86215 27.043 7.93706 27.7084 7.85029C28.5724 7.73792 29.3634 7.36335 30.0594 6.73783C30.4328 6.40259 30.7224 6.05737 30.9453 5.6828C31.0789 5.45744 31.0439 5.24768 30.8442 5.07539C30.6519 4.90933 30.4122 4.82006 30.1637 4.7364C29.6062 4.5485 29.0406 4.43238 28.3627 4.31502C28.0212 4.25634 27.6585 4.19953 27.254 4.14272C27.1241 4.12462 27.0673 4.04908 27.0323 3.98478C26.5978 3.1907 26.0635 2.48152 25.4429 1.87535C24.7737 1.22236 24.0783 0.767892 23.316 0.486968C22.7729 0.286576 22.2142 0.186068 21.6473 0.186068L21.648 0.186692ZM16.7449 7.6424C16.6251 7.6424 16.5832 7.56374 16.5701 7.4957C16.5595 7.44388 16.5483 7.39207 16.5364 7.34025C16.5208 7.27096 16.5046 7.19854 16.4915 7.12613C16.3341 6.24465 16.331 5.44745 16.4815 4.68958C16.6625 3.77877 17.067 2.99405 17.6838 2.35667C18.1589 1.86599 18.7451 1.47207 19.5298 1.11749C19.7714 1.00824 19.9418 1.07691 20.0904 1.16743C20.9875 1.71367 21.7372 2.48152 22.3197 3.44977C22.6306 3.96667 22.8847 4.53976 23.0751 5.15342C23.1337 5.3432 23.1849 5.53922 23.2343 5.72838C23.2567 5.81577 23.2798 5.90317 23.3035 5.9912L23.3241 6.06673L23.2224 6.11605C23.2049 6.12479 23.1937 6.12978 23.1818 6.13478C22.246 6.51434 21.2978 6.8221 20.3638 7.04934C19.8538 7.17357 19.3538 7.2747 18.9311 7.35711C18.2426 7.49195 17.514 7.58684 16.7661 7.64053C16.7587 7.64053 16.7518 7.64115 16.7449 7.64115V7.6424ZM19.7683 1.24858C19.7196 1.24858 19.6678 1.26107 19.6066 1.28854C18.8444 1.63251 18.2756 2.01332 17.8181 2.48714C17.2269 3.09831 16.8386 3.85181 16.665 4.72642C16.5189 5.46056 16.5227 6.23466 16.6756 7.09304C16.6875 7.16109 16.7037 7.231 16.7187 7.29843C16.7306 7.35024 16.7424 7.40206 16.7524 7.45449C17.4928 7.40143 18.2138 7.30717 18.8949 7.1742C19.3151 7.09179 19.8132 6.99128 20.3195 6.8683C21.2416 6.64356 22.178 6.34017 23.1025 5.9656C23.0857 5.90255 23.0694 5.84012 23.0532 5.77707C23.0045 5.58979 22.954 5.39626 22.8959 5.21023C22.7099 4.61093 22.462 4.05158 22.1586 3.54716C21.5837 2.59202 20.8751 1.86599 19.9924 1.32849C19.9112 1.27917 19.8438 1.24921 19.7683 1.24921V1.24858ZM27.1784 7.42078C27.0941 7.42078 27.0099 7.41829 26.9243 7.41267C26.2826 7.37209 25.6427 7.18169 24.9666 6.83022C24.7843 6.73533 24.6114 6.6342 24.4279 6.52682C24.3455 6.47875 24.2618 6.42944 24.1763 6.38074L24.0489 6.3077L24.1688 6.2228C24.1819 6.21344 24.1906 6.20719 24.1975 6.2022C24.21 6.19284 24.22 6.18535 24.2343 6.17848C25.182 5.73899 26.0884 5.22147 26.9293 4.64027C26.9836 4.60281 27.0648 4.58471 27.136 4.59532C27.2408 4.61093 27.3457 4.62528 27.4506 4.64027C27.7765 4.68584 28.1136 4.73328 28.4426 4.8007C28.9745 4.90995 29.5082 5.04729 30.0245 5.17964L30.0326 5.18151C30.1394 5.20898 30.2392 5.25455 30.3447 5.302C30.3941 5.32447 30.4459 5.34819 30.5014 5.37067L30.62 5.41998L30.537 5.518C30.4727 5.59416 30.4115 5.66907 30.3522 5.74149C30.2255 5.89693 30.1056 6.04363 29.972 6.18035C29.1655 7.00377 28.2272 7.42016 27.1797 7.42016L27.1784 7.42078ZM24.4135 6.30146C24.4497 6.32269 24.4865 6.34391 24.5221 6.36514C24.7038 6.47126 24.8755 6.57177 25.0528 6.66416C25.7051 7.00377 26.3207 7.18731 26.9356 7.22601C28.0443 7.29531 28.9938 6.91075 29.8366 6.04988C29.9646 5.9194 30.0813 5.77582 30.2055 5.62412C30.2405 5.58167 30.2754 5.53797 30.3117 5.49427C30.296 5.48741 30.2811 5.48054 30.2655 5.47367C30.1631 5.42748 30.0751 5.3869 29.9845 5.3638L29.9764 5.36193C29.462 5.23021 28.9308 5.09349 28.4032 4.98549C28.0805 4.91932 27.7459 4.87187 27.4231 4.82692C27.3176 4.81194 27.2121 4.79758 27.1073 4.78198C27.081 4.77823 27.0479 4.78572 27.0342 4.79509C26.2145 5.36193 25.3331 5.86884 24.4123 6.30208L24.4135 6.30146ZM23.7493 5.89256L23.7231 5.78206C23.2193 3.64392 22.1961 2.05952 20.5961 0.938319L20.4363 0.825949L20.6235 0.771637C20.9869 0.666135 21.593 0.619314 22.0338 0.663014C22.8322 0.742297 23.592 1.03009 24.2912 1.51827C25.1183 2.09635 25.8281 2.87919 26.4611 3.91299C26.4986 3.97416 26.5335 4.03597 26.5698 4.09964C26.586 4.12836 26.6028 4.1577 26.6197 4.18704L26.6628 4.26196L26.5916 4.31127C25.7301 4.90184 24.8343 5.40438 23.8529 5.84699L23.7493 5.89381V5.89256ZM20.8714 0.905232C22.3884 2.0258 23.3735 3.57401 23.8791 5.62849C24.7837 5.2146 25.6152 4.74764 26.4149 4.20452C26.4124 4.20015 26.4099 4.19578 26.4074 4.19141C26.3725 4.12961 26.3381 4.06905 26.3019 4.00975C25.6827 2.99842 24.9897 2.23369 24.1844 1.67059C23.5121 1.20051 22.7823 0.92396 22.0157 0.848423C21.6736 0.814712 21.2122 0.839683 20.8714 0.904608V0.905232Z" fill="#FD8415"/>
<path d="M78.533 18.509C80.81 18.509 82.558 19.314 83.823 20.924C84.927 22.373 85.479 24.236 85.479 26.49C85.479 28.261 85.157 29.825 84.49 31.251C83.34 33.758 81.339 35 78.51 35H71.863V18.509H78.533ZM78.096 33.091C78.832 33.091 79.476 33.022 79.959 32.861C80.81 32.562 81.523 32.01 82.075 31.159C82.512 30.515 82.857 29.664 83.041 28.606C83.156 27.985 83.202 27.41 83.202 26.881C83.202 24.834 82.811 23.247 81.983 22.12C81.178 20.993 79.867 20.418 78.073 20.418H74.094V33.091H78.096ZM100.583 20.533H90.7386V25.524H99.8466V27.433H90.7386V33.045H100.767V35H88.5536V18.509H100.583V20.533ZM105.918 33.045H114.29V35H103.687V18.509H105.918V33.045ZM119.228 35H116.974V18.509H119.228V35ZM134.53 20.533H125.33V25.524H133.426V27.502H125.33V35H123.076V18.509H134.53V20.533ZM150.523 20.855C151.604 22.327 152.156 24.19 152.156 26.467C152.156 28.928 151.535 30.975 150.293 32.608C148.821 34.517 146.728 35.483 144.014 35.483C141.461 35.483 139.483 34.632 138.034 32.976C136.723 31.343 136.079 29.296 136.079 26.835C136.079 24.604 136.631 22.695 137.735 21.108C139.161 19.084 141.277 18.049 144.06 18.049C146.958 18.049 149.12 18.992 150.523 20.855ZM148.568 31.366C149.442 29.963 149.879 28.33 149.879 26.49C149.879 24.558 149.373 22.994 148.361 21.821C147.326 20.625 145.946 20.05 144.198 20.05C142.473 20.05 141.093 20.625 140.012 21.798C138.931 22.971 138.402 24.696 138.402 26.973C138.402 28.813 138.862 30.354 139.782 31.596C140.702 32.861 142.197 33.482 144.29 33.482C146.245 33.482 147.671 32.769 148.568 31.366Z" fill="#FD8415"/>
</svg>
