<svg width="21" height="52" viewBox="0 0 21 52" fill="none" xmlns="http://www.w3.org/2000/svg">
<path d="M1.8359 0.81716C1.93686 0.450391 2.31604 0.234916 2.68281 0.335884C3.04958 0.43685 3.26505 0.816023 3.16408 1.18279L1.8359 0.81716ZM20.8932 50.7531C20.9215 51.1324 20.6368 51.4629 20.2574 51.4911L14.0754 51.9512C13.696 51.9794 13.3656 51.6948 13.3374 51.3154C13.3091 50.9361 13.5938 50.6056 13.9731 50.5774L19.4683 50.1684L19.0593 44.6733C19.0311 44.2939 19.3157 43.9635 19.6951 43.9352C20.0745 43.907 20.4049 44.1917 20.4331 44.571L20.8932 50.7531ZM3.16408 1.18279C-1.29339 17.3749 5.66383 37.3673 20.6559 50.2824L19.7568 51.3261C4.43753 38.1291 -2.78771 17.6128 1.8359 0.81716L3.16408 1.18279Z" fill="#FD8415"/>
</svg>
