<svg width="65" height="60" viewBox="0 0 65 60" fill="none" xmlns="http://www.w3.org/2000/svg">
<path d="M64.9961 1.08837C65.0449 0.538248 64.6385 0.052719 64.0884 0.00391245C63.5382 -0.0448941 63.0527 0.361504 63.0039 0.911628L64.9961 1.08837ZM0.391537 50.5351C-0.0467464 50.8711 -0.129627 51.4989 0.206418 51.9371L5.68259 59.0794C6.01863 59.5177 6.64635 59.6005 7.08463 59.2645C7.52291 58.9284 7.60579 58.3007 7.26975 57.8624L2.40205 51.5138L8.7507 46.6461C9.18899 46.31 9.27187 45.6823 8.93582 45.244C8.59978 44.8058 7.97206 44.7229 7.53378 45.0589L0.391537 50.5351ZM63.0039 0.911628C62.1608 10.4146 58.0415 24.3036 48.468 35.0364C38.9414 45.7167 23.95 53.3502 1.1309 50.3373L0.869101 52.3201C24.3357 55.4185 39.9871 47.549 49.9605 36.3677C59.8871 25.239 64.1249 10.908 64.9961 1.08837L63.0039 0.911628Z" fill="#FD8415"/>
</svg>
