<svg width="503" height="391" viewBox="0 0 503 391" fill="none" xmlns="http://www.w3.org/2000/svg">
<path d="M261 385C127.347 385 19 382.985 19 380.5C19 378.015 127.347 376 261 376C394.653 376 503 378.015 503 380.5C503 382.985 394.653 385 261 385Z" fill="black" fill-opacity="0.3"/>
<path d="M132.936 321.918L167.953 331.51L167.509 333.13L132.492 323.539L132.936 321.918Z" fill="#381C0E"/>
<path d="M167.562 318.485C168.175 318.835 168.693 319.331 169.068 319.929C169.442 320.528 169.663 321.21 169.71 321.914C169.638 323.628 169.089 330.268 167.46 331.962L132.786 322.464C132.786 322.464 133.895 316.688 136.558 316.612C139.221 316.537 155.662 316.637 155.662 316.637C155.662 316.637 158.339 321.385 163.52 321.763C167.722 322.118 167.562 318.485 167.562 318.485Z" fill="#572C20"/>
<path d="M197.519 216.694C197.519 216.694 172.966 250.596 170.994 253.787C168.137 258.374 177.19 269.197 182.795 263.289C186.326 259.596 226.309 220.564 226.309 220.564L197.519 216.694Z" fill="#1F4053"/>
<path d="M168.417 315.708C168.142 317.326 167.961 318.958 167.874 320.597C167.789 322.705 164.35 323.884 160.124 322.13C154.409 319.759 155.355 317.31 155.355 317.31L156.965 312.571L168.417 315.708Z" fill="#EFC1A1"/>
<path d="M168.657 316.01L156.097 313.043C156.097 313.043 167.009 260.243 170.994 253.787C177.078 253.389 184.906 255.997 184.906 255.997L168.657 316.01Z" fill="#1B2F3A"/>
<path d="M69.375 226.207L70.159 226.422L45.797 315.36L45.013 315.146L69.375 226.207Z" fill="#8E8E8E"/>
<path d="M13.0125 259L13.2273 258.216L102.166 282.578L101.951 283.362L13.0125 259Z" fill="#8E8E8E"/>
<path d="M34.3984 230.934L35.1046 230.531L80.7811 310.638L80.0749 311.041L34.3984 230.934Z" fill="#8E8E8E"/>
<path d="M17.735 293.979L17.3324 293.272L97.448 247.61L97.8505 248.316L17.735 293.979Z" fill="#8E8E8E"/>
<path d="M52.2791 224.965L53.0875 224.879L62.8407 316.577L62.0324 316.663L52.2791 224.965Z" fill="#8E8E8E"/>
<path d="M11.7823 276.084L11.6962 275.276L103.392 265.506L103.478 266.315L11.7823 276.084Z" fill="#8E8E8E"/>
<path d="M21.4706 242.138L21.9813 241.505L93.728 299.436L93.2173 300.069L21.4706 242.138Z" fill="#8E8E8E"/>
<path d="M28.9474 306.925L28.315 306.414L86.2458 234.667L86.8783 235.178L28.9474 306.925Z" fill="#8E8E8E"/>
<path d="M54.5138 282.017C48.3107 280.318 44.6594 273.912 46.3586 267.708C48.0578 261.505 54.4639 257.854 60.6671 259.553C66.8702 261.252 70.5214 267.658 68.8223 273.862C67.1231 280.065 60.717 283.716 54.5138 282.017Z" fill="#8E8E8E"/>
<path d="M42.6175 325.446C53.4281 328.417 64.8768 328.115 75.5154 324.577C86.154 321.04 95.5046 314.427 102.384 305.575C109.264 296.723 113.364 286.029 114.165 274.847C114.966 263.664 112.432 252.495 106.885 242.753C101.337 233.01 93.0247 225.132 82.9989 220.114C72.9731 215.097 61.6844 213.166 50.5608 214.565C39.4372 215.964 28.9786 220.631 20.5078 227.975C12.037 235.32 5.9347 245.011 2.97283 255.824C-0.978468 270.313 0.975713 285.778 8.40706 298.828C15.8384 311.879 28.1407 321.451 42.6175 325.446ZM70.0392 225.338C79.0278 227.8 87.0844 232.872 93.1903 239.913C99.2961 246.954 103.177 255.648 104.342 264.894C105.507 274.141 103.904 283.525 99.7356 291.861C95.5672 300.196 89.0206 307.109 80.9237 311.723C72.8268 316.338 63.5433 318.449 54.2471 317.787C44.9509 317.126 36.0595 313.723 28.6973 308.008C21.3352 302.294 15.8329 294.525 12.8863 285.683C9.93973 276.841 9.68116 267.325 12.1433 258.336C15.4556 246.289 23.4121 236.049 34.2665 229.863C45.1208 223.676 57.9863 222.049 70.0392 225.338Z" fill="#1F1F1F"/>
<path d="M45.0402 316.602C54.1003 319.084 63.6928 318.823 72.6047 315.853C81.5166 312.883 89.3476 307.337 95.1075 299.916C100.867 292.496 104.298 283.534 104.964 274.164C105.631 264.794 103.504 255.436 98.852 247.275C94.2004 239.114 87.2332 232.515 78.8315 228.314C70.4297 224.112 60.9707 222.496 51.6506 223.671C42.3305 224.845 33.568 228.757 26.471 234.911C19.3741 241.065 14.2615 249.186 11.7797 258.246C8.46955 270.395 10.112 283.36 16.347 294.299C22.582 305.239 32.9006 313.259 45.0402 316.602ZM69.1585 228.553C77.5112 230.841 84.9978 235.555 90.6716 242.097C96.3455 248.64 99.9517 256.719 101.034 265.311C102.117 273.903 100.627 282.624 96.7539 290.37C92.8804 298.116 86.7969 304.539 79.2729 308.827C71.7489 313.115 63.1221 315.076 54.4836 314.462C45.8451 313.847 37.5828 310.685 30.7416 305.375C23.9003 300.065 18.7873 292.845 16.0492 284.629C13.3111 276.413 13.0708 267.569 15.3587 259.217C18.4396 248.024 25.8336 238.511 35.9192 232.762C46.0047 227.014 57.9584 225.5 69.1585 228.553Z" fill="#3B3C3A"/>
<path d="M56.0147 276.537C52.8377 275.667 50.9677 272.386 51.8379 269.209C52.7081 266.032 55.9891 264.162 59.1661 265.032C62.3431 265.903 64.2131 269.184 63.3428 272.361C62.4726 275.538 59.1916 277.408 56.0147 276.537Z" fill="#3B3C3A"/>
<path d="M54.6305 269.974C54.4683 270.559 54.4834 271.18 54.674 271.756C54.8645 272.333 55.2218 272.84 55.7008 273.214C56.1798 273.587 56.7588 273.81 57.3645 273.854C57.9703 273.899 58.5756 273.762 59.1037 273.462C59.6318 273.162 60.0591 272.712 60.3313 272.169C60.6036 271.626 60.7086 271.015 60.6332 270.412C60.5577 269.81 60.3051 269.243 59.9073 268.784C59.5096 268.325 58.9846 267.994 58.3988 267.834C57.6154 267.622 56.7799 267.728 56.0741 268.128C55.3684 268.529 54.8496 269.193 54.6305 269.974Z" fill="#767675"/>
<path d="M218.078 225.746L222.221 229.646L205.581 247.324L201.438 243.424L218.078 225.746Z" fill="#8D8D8C"/>
<path d="M99.2825 219.353L103.546 223.121L66.0638 265.534L61.8 261.766L99.2825 219.353Z" fill="#8D8D8C"/>
<path d="M134.121 186.11L130.697 183.087C130.597 182.999 130.481 182.931 130.355 182.888C130.229 182.845 130.096 182.827 129.963 182.835C129.83 182.844 129.7 182.878 129.581 182.936C129.461 182.995 129.354 183.076 129.266 183.176L123.143 190.113L128.114 194.501L134.237 187.565C134.328 187.463 134.396 187.344 134.439 187.214C134.483 187.085 134.499 186.948 134.488 186.813C134.477 186.677 134.439 186.544 134.376 186.424C134.313 186.303 134.226 186.196 134.121 186.11Z" fill="#8D8D8C"/>
<path d="M242.262 306.388C250.261 308.304 256.647 314.723 254.813 323.388C252.794 332.939 243.16 335.092 236.337 334.104C228.346 332.957 160.369 318.087 150.3 315.367C137.866 312.008 135.031 303.447 136.948 296.831C138.931 289.969 144.774 284.372 155.916 286.979C165.269 289.172 233.493 304.28 242.262 306.388Z" stroke="#36423B" stroke-width="1.88" stroke-miterlimit="10"/>
<path d="M148.081 312.23C141.625 310.462 137.825 303.794 139.593 297.338C141.362 290.882 148.029 287.082 154.485 288.85C160.941 290.619 164.741 297.286 162.973 303.742C161.204 310.199 154.537 313.999 148.081 312.23Z" fill="#36423B"/>
<path d="M151.023 330.082L149.747 304.731" stroke="#36423B" stroke-width="2.73" stroke-miterlimit="10"/>
<path d="M154.166 275.183L151.771 292.88" stroke="#36423B" stroke-width="2.73" stroke-miterlimit="10"/>
<path d="M252.996 276.504L253.78 276.719L229.418 365.658L228.634 365.443L252.996 276.504Z" fill="#8E8E8E"/>
<path d="M196.627 309.286L196.842 308.502L285.78 332.864L285.565 333.648L196.627 309.286Z" fill="#8E8E8E"/>
<path d="M217.997 281.231L218.703 280.829L264.365 360.944L263.659 361.347L217.997 281.231Z" fill="#8E8E8E"/>
<path d="M201.345 344.283L200.942 343.577L281.058 297.914L281.46 298.621L201.345 344.283Z" fill="#8E8E8E"/>
<path d="M235.9 275.271L236.708 275.185L246.461 366.883L245.653 366.968L235.9 275.271Z" fill="#8E8E8E"/>
<path d="M195.4 326.359L195.313 325.551L287.007 315.766L287.094 316.574L195.4 326.359Z" fill="#8E8E8E"/>
<path d="M205.067 292.426L205.578 291.794L277.315 349.737L276.804 350.369L205.067 292.426Z" fill="#8E8E8E"/>
<path d="M212.556 357.21L211.923 356.7L269.854 284.953L270.486 285.464L212.556 357.21Z" fill="#8E8E8E"/>
<path d="M238.126 332.312C231.922 330.612 228.271 324.206 229.97 318.003C231.67 311.8 238.076 308.149 244.279 309.848C250.482 311.547 254.133 317.953 252.434 324.156C250.735 330.36 244.329 334.011 238.126 332.312Z" fill="#8E8E8E"/>
<path d="M226.229 375.741C237.04 378.703 248.487 378.392 259.121 374.848C269.755 371.304 279.1 364.686 285.973 355.831C292.846 346.976 296.939 336.282 297.735 325.101C298.53 313.92 295.992 302.754 290.441 293.016C284.891 283.277 276.577 275.403 266.551 270.39C256.526 265.376 245.239 263.448 234.117 264.849C222.996 266.25 212.54 270.918 204.071 278.262C195.603 285.606 189.502 295.296 186.541 306.107C182.587 320.603 184.546 336.076 191.986 349.131C199.427 362.185 211.742 371.755 226.229 375.741ZM253.651 275.633C262.64 278.095 270.696 283.167 276.802 290.208C282.908 297.249 286.789 305.943 287.954 315.189C289.119 324.436 287.516 333.82 283.348 342.156C279.179 350.491 272.632 357.403 264.536 362.018C256.439 366.633 247.155 368.743 237.859 368.082C228.563 367.421 219.671 364.018 212.309 358.303C204.947 352.589 199.445 344.82 196.498 335.978C193.552 327.136 193.293 317.619 195.755 308.631C199.068 296.584 207.024 286.344 217.878 280.158C228.733 273.971 241.598 272.344 253.651 275.633Z" fill="#1F1F1F"/>
<path d="M228.652 366.897C237.712 369.379 247.305 369.118 256.216 366.148C265.128 363.178 272.959 357.632 278.719 350.211C284.479 342.791 287.909 333.829 288.576 324.458C289.242 315.088 287.115 305.731 282.464 297.57C277.812 289.409 270.845 282.81 262.443 278.608C254.041 274.407 244.583 272.791 235.262 273.965C225.942 275.14 217.18 279.051 210.083 285.206C202.986 291.36 197.873 299.481 195.392 308.541C192.081 320.689 193.724 333.655 199.959 344.594C206.194 355.534 216.512 363.554 228.652 366.897ZM252.77 278.848C261.122 281.138 268.607 285.852 274.28 292.396C279.952 298.939 283.557 307.018 284.638 315.61C285.719 324.202 284.229 332.922 280.354 340.667C276.48 348.412 270.396 354.834 262.872 359.122C255.348 363.409 246.721 365.369 238.083 364.754C229.445 364.139 221.183 360.976 214.343 355.666C207.502 350.356 202.39 343.136 199.652 334.92C196.914 326.705 196.674 317.861 198.962 309.509C202.043 298.315 209.439 288.801 219.526 283.053C229.614 277.304 241.569 275.792 252.77 278.848Z" fill="#3B3C3A"/>
<path d="M235.45 319.504C235.138 320.642 235.171 321.846 235.544 322.965C235.917 324.085 236.613 325.068 237.545 325.791C238.477 326.515 239.602 326.945 240.779 327.029C241.956 327.113 243.131 326.846 244.156 326.261C245.181 325.677 246.009 324.802 246.537 323.747C247.064 322.692 247.267 321.504 247.12 320.334C246.972 319.164 246.481 318.063 245.708 317.172C244.936 316.281 243.916 315.639 242.778 315.327C241.252 314.909 239.623 315.115 238.249 315.898C236.875 316.681 235.868 317.978 235.45 319.504Z" fill="#3B3C3A"/>
<path d="M238.242 320.269C238.08 320.854 238.095 321.475 238.286 322.051C238.476 322.628 238.834 323.135 239.313 323.509C239.792 323.882 240.371 324.105 240.976 324.149C241.582 324.194 242.187 324.057 242.716 323.757C243.244 323.457 243.671 323.007 243.943 322.464C244.215 321.921 244.321 321.31 244.245 320.707C244.17 320.105 243.917 319.538 243.519 319.079C243.121 318.62 242.596 318.289 242.011 318.129C241.227 317.917 240.392 318.022 239.686 318.423C238.98 318.824 238.461 319.488 238.242 320.269Z" fill="#767675"/>
<path d="M238.501 330.767C240.737 331.382 243.108 331.298 245.295 330.525C247.482 329.752 249.379 328.327 250.731 326.443C252.083 324.559 252.825 322.305 252.857 319.986C252.889 317.667 252.209 315.394 250.909 313.473L205.108 245.583L198.914 249.767L244.718 317.649C245.16 318.305 245.39 319.081 245.379 319.872C245.368 320.663 245.115 321.432 244.654 322.075C244.193 322.719 243.547 323.206 242.802 323.472C242.057 323.738 241.248 323.77 240.484 323.563L153.004 298.199L150.916 305.374L238.44 330.75L238.501 330.767Z" fill="#3A3A3A"/>
<path d="M150.62 305.899L150.814 305.952C151.453 306.088 152.116 306.056 152.738 305.858C153.361 305.659 153.92 305.302 154.362 304.821L209.041 244.984C209.189 244.821 209.265 244.606 209.254 244.386C209.243 244.167 209.146 243.961 208.983 243.813L204.697 239.892C204.533 239.744 204.317 239.667 204.096 239.678C203.875 239.688 203.667 239.785 203.517 239.948L153.183 295.057L122.466 199.204L115.344 201.486L148.018 303.472C148.216 304.06 148.558 304.59 149.012 305.014C149.467 305.438 150.019 305.742 150.62 305.899Z" fill="#3A3A3A"/>
<path d="M127.203 190.739L201.885 243.087L197.596 249.205L122.915 196.857L127.203 190.739Z" fill="#3A3A3A"/>
<path d="M125.407 188.608L129.421 191.952C129.898 192.349 129.962 193.058 129.565 193.535L104.53 223.583C104.133 224.06 103.425 224.125 102.948 223.727L98.9341 220.383C98.4574 219.986 98.393 219.278 98.7901 218.801L123.825 188.752C124.222 188.275 124.93 188.211 125.407 188.608Z" fill="#3A3A3A"/>
<path d="M238.782 234.218L201.633 224.043C199.263 223.394 197.791 219.78 198.259 217.588C198.617 215.934 199.47 215.135 201.654 215.563C204.599 216.152 228.749 221.82 235.066 221.713C241.384 221.607 244.072 221.576 245.514 225.058C247.775 230.602 244.657 235.828 238.782 234.218Z" fill="#1F1F1F"/>
<path d="M133.886 189.386C141.2 188.132 146.224 177.017 149.106 170.646L149.434 169.931C150.442 167.856 152.161 166.21 154.278 165.293C156.395 164.375 158.771 164.246 160.975 164.929C165.328 166.436 169.589 168.195 173.738 170.196C174.034 170.36 174.361 170.461 174.698 170.494C175.034 170.528 175.374 170.492 175.697 170.39C176.02 170.287 176.318 170.12 176.574 169.899C176.83 169.677 177.038 169.406 177.186 169.102C177.334 168.797 177.418 168.466 177.434 168.128C177.449 167.79 177.396 167.452 177.276 167.135C177.157 166.818 176.975 166.529 176.74 166.285C176.506 166.041 176.224 165.847 175.912 165.716C171.563 163.603 167.094 161.747 162.529 160.156C159.157 159.082 155.51 159.269 152.265 160.681C149.021 162.093 146.398 164.634 144.885 167.833L144.566 168.55C142.43 173.269 136.758 185.816 131.538 184.339C130.9 184.164 130.219 184.25 129.644 184.578C129.07 184.905 128.649 185.447 128.474 186.085C128.299 186.723 128.385 187.404 128.713 187.979C129.04 188.553 129.582 188.974 130.22 189.149C131.409 189.504 132.662 189.585 133.886 189.386Z" fill="#3A3A3A"/>
<path d="M150.809 270.153L160.305 272.754C160.823 272.969 161.244 273.365 161.49 273.869C161.737 274.372 161.791 274.948 161.643 275.488C161.495 276.029 161.155 276.496 160.686 276.804C160.218 277.112 159.654 277.238 159.099 277.159L149.602 274.558C149.279 274.512 148.969 274.397 148.693 274.222C148.417 274.047 148.182 273.815 148.003 273.542C147.823 273.269 147.704 272.961 147.653 272.638C147.602 272.316 147.62 271.986 147.707 271.671C147.793 271.356 147.945 271.062 148.154 270.811C148.362 270.559 148.621 270.355 148.915 270.211C149.208 270.068 149.529 269.988 149.856 269.978C150.182 269.968 150.507 270.028 150.809 270.153Z" fill="#36423B"/>
<path d="M144.092 326.584L153.844 329.255C154.364 329.434 154.796 329.805 155.053 330.291C155.309 330.777 155.371 331.343 155.226 331.873C155.081 332.403 154.739 332.858 154.271 333.146C153.802 333.434 153.242 333.532 152.703 333.422L142.951 330.75C142.661 330.691 142.386 330.573 142.144 330.403C141.901 330.233 141.696 330.015 141.541 329.762C141.386 329.51 141.285 329.229 141.243 328.935C141.201 328.642 141.22 328.344 141.298 328.058C141.377 327.772 141.513 327.506 141.698 327.275C141.883 327.044 142.114 326.854 142.376 326.715C142.638 326.577 142.925 326.494 143.221 326.472C143.516 326.449 143.813 326.487 144.092 326.584Z" fill="#36423B"/>
<path d="M144.893 167.873C146.406 164.674 149.028 162.133 152.273 160.721C155.518 159.309 159.165 159.122 162.537 160.196C167.102 161.787 171.571 163.643 175.92 165.756C176.232 165.887 176.514 166.081 176.748 166.325C176.983 166.569 177.165 166.858 177.284 167.175C177.404 167.492 177.457 167.83 177.441 168.168C177.426 168.506 177.342 168.837 177.194 169.142C177.046 169.446 176.838 169.717 176.582 169.939C176.326 170.16 176.028 170.327 175.705 170.43C175.382 170.532 175.042 170.568 174.705 170.535C174.369 170.501 174.042 170.4 173.746 170.236C169.597 168.235 165.336 166.476 160.983 164.969C158.779 164.286 156.403 164.415 154.286 165.333C152.169 166.25 150.45 167.896 149.442 169.971L149.113 170.686L144.642 168.514L144.893 167.873Z" fill="#3B3C3A"/>
<path d="M146.326 198.495C148.997 198.043 196.794 192.961 206.539 191.956C220.564 203.886 233.364 208.775 242.654 210.126C241.372 216.878 237.058 221.321 232.508 221.476C227 221.672 178.603 218.16 171.545 217.477C164.487 216.794 147.831 215.196 144.638 211.537C139.974 206.196 141.724 199.289 146.326 198.495Z" fill="#2F5A72"/>
<path d="M142.138 265.988L177.155 275.58L176.711 277.201L141.694 267.609L142.138 265.988Z" fill="#381C0E"/>
<path d="M176.249 256.107C177.386 258.994 177.957 262.073 177.931 265.176C175.293 270.003 169.075 266.737 166.646 264.68C164.217 262.622 164.462 261.487 164.462 261.487C164.865 260.136 165.083 258.736 165.109 257.327C165.759 256.51 176.249 256.107 176.249 256.107Z" fill="#EFC1A1"/>
<path d="M166.626 214.899L179.219 258.54L163.87 260.018C163.87 260.018 145.83 215.415 143.199 208.633C147.748 207.445 166.626 214.899 166.626 214.899Z" fill="#2F5A72"/>
<path d="M178.237 263.3C178.739 263.437 179.678 264.641 179.607 266.355C179.535 268.068 178.286 274.355 176.659 276.078L141.977 266.578C141.977 266.578 143.086 260.802 145.746 260.735C148.407 260.669 164.85 260.76 164.85 260.76C166.904 263.213 169.644 264.996 172.719 265.879C177.732 267.252 177.9 263.283 177.9 263.283L178.237 263.3Z" fill="#572C20"/>
<path d="M224.035 98.6337L228.592 108.912L218.555 113.362L213.998 103.084L224.035 98.6337Z" fill="#E1A484"/>
<path d="M212.881 134.23L203.85 168.065C203.85 168.065 161.647 158.399 159.516 157.74C157.386 157.08 156.533 158.258 155.16 159.814C153.787 161.369 148.043 167.334 154.475 170.128C159.242 171.983 162.238 171.45 163.034 171.034C163.83 170.617 167.545 167.43 167.545 167.43C167.545 167.43 199.704 177.082 204.787 178.474C209.87 179.866 213.361 178.739 216.403 171.816C219.445 164.893 228.546 141.315 228.546 141.315L212.881 134.23Z" fill="#E1A484"/>
<path d="M229.729 142.699C229.729 142.699 216.82 139.902 211.224 134.922C212.534 126.682 217.233 111.945 226.557 114.935C236.383 118.062 234.48 129.123 229.729 142.699Z" fill="#C37528"/>
<path d="M245.754 216.856C240.664 219.118 214.095 201.47 203.249 191.141C211.982 176.098 213.034 142.833 213.851 128.236C214.667 113.638 223.04 105.06 229.465 109.055C235.89 113.05 256.231 142.477 254.062 178.296C253.973 198.983 245.754 216.856 245.754 216.856Z" fill="#4D8C3D"/>
<path d="M230.857 167.934C238.62 175.136 246.878 179.804 254.39 181.076L254.88 178.179C245.688 176.609 235.142 169.439 225.961 158.496C217.643 148.584 212.351 137.721 212.5 130.782C212.641 124.391 215.661 119.242 220.643 117.027C226.406 114.448 233.493 116.2 240.083 121.841L241.992 119.608C231.361 110.502 222.683 112.898 219.437 114.377C213.405 117.071 209.712 123.191 209.556 130.743C209.4 138.296 214.955 149.96 223.709 160.389C225.935 163.048 228.322 165.568 230.857 167.934Z" fill="#62AB4F"/>
<path d="M216.161 136.776L205.754 170.206C205.754 170.206 164.007 158.771 161.884 158.085C159.761 157.399 158.927 158.506 157.469 159.992C156.011 161.477 150.058 167.204 156.369 170.268C161.053 172.319 164.074 171.905 164.878 171.529C165.682 171.153 169.547 168.073 169.547 168.073C169.547 168.073 201.282 179.029 206.301 180.622C211.32 182.214 214.853 181.241 218.193 174.409C221.532 167.577 231.574 144.436 231.574 144.436L216.161 136.776Z" fill="#EFC1A1"/>
<path d="M232.617 145.953C232.617 145.953 219.83 142.639 214.447 137.434C216.126 129.266 221.382 114.71 230.59 118.085C240.298 121.54 237.964 132.549 232.617 145.953Z" fill="#397629"/>
<path d="M229.52 107.577L229.427 107.349C229.254 106.922 228.919 106.582 228.495 106.403C228.071 106.224 227.593 106.221 227.166 106.394L217.621 110.272C217.197 110.445 216.859 110.778 216.681 111.2C216.503 111.622 216.499 112.097 216.672 112.521L216.765 112.75C216.85 112.961 216.977 113.153 217.137 113.315C217.297 113.478 217.487 113.607 217.697 113.695C217.907 113.784 218.133 113.83 218.361 113.832C218.588 113.834 218.814 113.79 219.026 113.704L228.562 109.83C228.987 109.657 229.327 109.323 229.506 108.901C229.686 108.479 229.691 108.003 229.52 107.577Z" fill="#EC7406"/>
<path d="M260.045 193.241L304.383 183.945C305.858 183.637 307.149 182.755 307.974 181.495C308.799 180.234 309.089 178.698 308.781 177.223L294.47 108.915C294.161 107.442 293.28 106.153 292.02 105.33C290.761 104.508 289.226 104.219 287.754 104.528L243.421 113.872C241.948 114.182 240.658 115.065 239.835 116.326C239.012 117.587 238.723 119.123 239.032 120.596C239.032 120.596 255.949 161.691 253.315 188.907C253.051 191.562 256.986 193.861 260.045 193.241Z" fill="#397629"/>
<path d="M261.272 189.211L301.613 180.781C302.277 180.642 302.907 180.374 303.467 179.992C304.027 179.609 304.507 179.12 304.878 178.553C305.249 177.985 305.504 177.35 305.629 176.683C305.755 176.017 305.747 175.332 305.608 174.668L292.605 112.542C292.466 111.879 292.198 111.249 291.815 110.689C291.433 110.128 290.944 109.649 290.376 109.278C289.809 108.907 289.173 108.652 288.507 108.526C287.84 108.401 287.156 108.408 286.492 108.548L246.174 116.994C245.51 117.133 244.881 117.401 244.32 117.783C243.76 118.166 243.281 118.655 242.91 119.222C242.539 119.79 242.284 120.425 242.158 121.092C242.033 121.758 242.04 122.443 242.18 123.107C242.18 123.107 257.581 160.471 255.185 185.224C254.945 187.724 258.504 189.807 261.272 189.211Z" fill="#62AB4F"/>
<path d="M243.421 113.872L287.747 104.554C289.217 104.243 290.75 104.527 292.01 105.344C293.27 106.162 294.155 107.446 294.47 108.915L296.077 116.6L241.983 128.252C240.27 123.474 239.079 120.562 239.079 120.562C238.779 119.1 239.067 117.579 239.879 116.327C240.691 115.075 241.964 114.193 243.421 113.872Z" fill="#397629"/>
<path d="M285.876 148.588L265.499 152.886L269.019 169.572C269.227 170.56 269.82 171.425 270.666 171.977C271.513 172.528 272.543 172.721 273.532 172.512L286.446 169.788C286.936 169.686 287.402 169.488 287.816 169.206C288.229 168.923 288.583 168.562 288.857 168.143C289.131 167.723 289.32 167.254 289.412 166.762C289.505 166.269 289.499 165.764 289.396 165.273L285.876 148.588Z" fill="#4D8C3D"/>
<path d="M264.235 152.889L286.999 148.092L287.967 152.686L265.203 157.483L264.235 152.889Z" fill="#397629"/>
<path d="M227.193 103.347C227.193 103.347 203.274 110.357 199.112 103.837C198.48 102.859 198.23 95.8208 198.321 90.7885C198.465 83.3466 199.824 73.9265 203.119 68.2945C208.51 58.9846 223.923 48.1774 232.655 54.1584C241.387 60.1394 259.431 79.3158 227.193 103.347Z" fill="#EFC1A1"/>
<path d="M219.962 76.6773C213.282 90.6913 218.301 87.2362 221.495 78.7546C220.896 83.948 220.883 89.1922 221.455 94.3886C222.34 101.184 223.63 101.973 227.491 104.3C233.192 104.233 239.088 97.8167 239.088 97.8167C239.088 97.8167 236.478 101.259 237.534 101.965C238.591 102.672 246.085 96.542 248.053 89.8743C250.022 83.2066 241.442 64.9179 233.841 59.7865C226.24 54.6551 211.067 55.9064 211.067 55.9064C207.79 56.0303 204.515 55.6225 201.369 54.6988C201.584 58.5459 206.648 60.7 206.648 60.7C206.648 60.7 204.917 62.5935 201.451 61.0379C204.026 65.9483 216.54 70.9481 219.923 70.1131C217.236 72.8338 215.139 78.0362 219.962 76.6773Z" fill="url(#paint0_linear_22_110)"/>
<path d="M204.77 77.7908L204.604 76.3911C201.145 78.6447 197.498 79.928 194.041 81.415C198.381 88.7025 205.752 85.1627 206.251 77.8461C205.746 77.7364 205.225 77.7255 204.716 77.8139C204.382 77.8929 204.445 77.8345 204.77 77.7908Z" fill="#EFC1A1"/>
<path d="M204.636 70.7082C204.008 72.099 201.859 77.1451 205.835 78.7076C209.81 80.2701 210.544 73.6147 210.544 73.6147C210.544 73.6147 206.403 71.448 204.636 70.7082Z" fill="url(#paint1_linear_22_110)"/>
<path d="M205.674 70.6517C210.079 71.8582 212.631 74.9533 208.652 73.6078C204.674 72.2624 203.355 70.0259 205.674 70.6517Z" fill="url(#paint2_linear_22_110)"/>
<path d="M207.277 78.6291C206.787 75.957 203.966 76.0932 203.462 78.105" stroke="#452F20" stroke-width="0.81" stroke-miterlimit="10"/>
<path d="M210.604 91.5487C211.214 94.3677 208.043 95.9519 205.603 95.9748C204.724 96.0371 203.853 95.9689 202.967 95.9535C203.39 96.0693 203.848 96.1948 204.253 96.3058C206.439 96.6583 209.222 96.3505 210.398 94.2009C210.655 93.815 210.806 93.368 210.834 92.9052C210.863 92.4424 210.769 91.9802 210.561 91.5655L210.604 91.5487Z" fill="#946053"/>
<path d="M228.57 85.9106C226.678 88.8397 222.274 91.2981 220.343 90.0495C218.412 88.8008 218.381 85.421 220.282 82.4567C222.183 79.4924 225.669 76.1381 228.138 77.9793C229.989 79.3104 230.464 82.9727 228.57 85.9106Z" fill="#EFC1A1"/>
<path d="M248.56 52.3784C247.892 53.3318 246.252 53.3372 244.902 52.3896C243.551 51.442 242.988 49.9049 243.647 48.9491C244.307 47.9934 245.953 47.9992 247.306 48.938C248.658 49.8767 249.193 51.4154 248.56 52.3784Z" fill="#62AB4F"/>
<path d="M190.871 42.8928C193.205 44.7443 207.825 55.5391 209.262 56.7568C211.108 56.7604 211.714 53.2331 211.714 53.2331C211.714 53.2331 194.71 42.3627 192.418 40.911C190.836 39.9095 189.479 41.716 190.871 42.8928Z" fill="#62AB4F"/>
<path d="M208.395 55.9796C214.896 64.2284 241.748 85.8931 247.455 91.8507C250.818 88.425 271.772 71.0478 252.406 55.591C234.453 41.2693 225.548 40.6578 218.111 45.5057C212.897 48.9166 208.395 55.9796 208.395 55.9796Z" fill="#4D8C3D"/>
<path d="M244.221 83.8811C247.77 87.107 249.56 88.5918 250.235 89.1365C252.61 86.8133 254.74 84.2517 256.59 81.4924C253.217 79.8392 246.832 80.7798 244.221 83.8811Z" fill="url(#paint3_linear_22_110)"/>
<defs>
<linearGradient id="paint0_linear_22_110" x1="248.29" y1="89.6231" x2="196.082" y2="66.8047" gradientUnits="userSpaceOnUse">
<stop stop-color="#4A332B"/>
<stop offset="1" stop-color="#382723"/>
</linearGradient>
<linearGradient id="paint1_linear_22_110" x1="229.972" y1="162.237" x2="227.66" y2="168.123" gradientUnits="userSpaceOnUse">
<stop stop-color="#BA916C"/>
<stop offset="1" stop-color="#BA916C" stop-opacity="0"/>
</linearGradient>
<linearGradient id="paint2_linear_22_110" x1="210.01" y1="72.7853" x2="203.711" y2="72.2642" gradientUnits="userSpaceOnUse">
<stop stop-color="#4A332B"/>
<stop offset="1" stop-color="#382723"/>
</linearGradient>
<linearGradient id="paint3_linear_22_110" x1="253.704" y1="89.6231" x2="257.562" y2="96.6188" gradientUnits="userSpaceOnUse">
<stop stop-color="#4A332B"/>
<stop offset="1" stop-color="#382723"/>
</linearGradient>
</defs>
</svg>
