<svg width="479" height="44" viewBox="0 0 479 44" fill="none" xmlns="http://www.w3.org/2000/svg">
<path d="M7.29289 43.7071C7.68342 44.0976 8.31658 44.0976 8.70711 43.7071L15.0711 37.3431C15.4616 36.9526 15.4616 36.3195 15.0711 35.9289C14.6805 35.5384 14.0474 35.5384 13.6569 35.9289L8 41.5858L2.34315 35.9289C1.95262 35.5384 1.31946 35.5384 0.928932 35.9289C0.538408 36.3195 0.538408 36.9526 0.928932 37.3431L7.29289 43.7071ZM8 24V23H7V24H8ZM471.5 24H472.5V23H471.5V24ZM470.793 43.7071C471.183 44.0976 471.817 44.0976 472.207 43.7071L478.571 37.3431C478.962 36.9526 478.962 36.3195 478.571 35.9289C478.181 35.5384 477.547 35.5384 477.157 35.9289L471.5 41.5858L465.843 35.9289C465.453 35.5384 464.819 35.5384 464.429 35.9289C464.038 36.3195 464.038 36.9526 464.429 37.3431L470.793 43.7071ZM9 43V24H7V43H9ZM8 25H471.5V23H8V25ZM470.5 24V43H472.5V24H470.5Z" fill="#FD8415"/>
<path d="M243.5 1V23.5" stroke="#FD8415" stroke-width="2" stroke-linecap="round"/>
<path d="M8 24V23H7V24L8 24ZM7.29289 43.7071C7.68342 44.0976 8.31658 44.0976 8.70711 43.7071L15.0711 37.3431C15.4616 36.9526 15.4616 36.3195 15.0711 35.9289C14.6805 35.5384 14.0474 35.5384 13.6569 35.9289L8 41.5858L2.34315 35.9289C1.95262 35.5384 1.31946 35.5384 0.928932 35.9289C0.538408 36.3195 0.538408 36.9526 0.928932 37.3431L7.29289 43.7071ZM243.5 23H8V25H243.5V23ZM7 24V43H9V24L7 24Z" fill="#34AA16"/>
</svg>
