<svg width="257" height="49" viewBox="0 0 257 49" fill="none" xmlns="http://www.w3.org/2000/svg">
<path d="M72.4882 28.117V22.717H75.9442V28.117H81.3442V31.573H75.9442V37H72.4882V31.573H67.0882V28.117H72.4882Z" fill="#1F1F1F"/>
<path d="M181.088 28.522V25.039H195.344V28.522H181.088ZM181.088 34.678V31.195H195.344V34.678H181.088Z" fill="#1F1F1F"/>
<path fill-rule="evenodd" clip-rule="evenodd" d="M0 5.25675V10.6854H43.4227V5.25675C43.4227 4.39369 43.0787 3.56524 42.4681 2.95462C41.8574 2.344 41.031 2 40.1659 2H3.25675C2.39369 2 1.56527 2.34397 0.954619 2.95462C0.343996 3.56527 0 4.39166 0 5.25675ZM43.4227 42.1373V12.8572H0V42.1373C0 43.0003 0.343965 43.8288 0.954619 44.4394C1.56527 45.05 2.39166 45.394 3.25675 45.394H40.1659C41.029 45.394 41.8574 45.0501 42.4681 44.4394C43.0787 43.8288 43.4227 43.0024 43.4227 42.1373ZM16.3101 7.27203C16.3101 6.52298 16.9187 5.91436 17.6678 5.91436C18.4168 5.91436 19.0254 6.52298 19.0254 7.27203C19.0254 8.02109 18.4148 8.62971 17.6678 8.62971C16.9187 8.62971 16.3101 8.02109 16.3101 7.27203ZM5.48359 7.27203C5.48359 6.52298 6.09221 5.91436 6.84127 5.91436C7.59032 5.91436 8.19894 6.52298 8.19894 7.27203C8.19894 8.02109 7.59032 8.62971 6.84127 8.62971C6.09221 8.62971 5.48359 8.02109 5.48359 7.27203ZM10.8961 7.27203C10.8961 6.52298 11.5067 5.91436 12.2537 5.91436C13.0028 5.91436 13.6114 6.52298 13.6114 7.27203C13.6114 8.02109 13.0028 8.62971 12.2537 8.62971C11.5047 8.62971 10.8961 8.02109 10.8961 7.27203ZM37.9982 8.51366H28.216C27.6176 8.51366 27.1311 8.02718 27.1311 7.42877C27.1311 6.83036 27.6176 6.34388 28.216 6.34388H37.9982C38.5966 6.34388 39.0831 6.83036 39.0831 7.42877C39.0831 8.02719 38.5966 8.51366 37.9982 8.51366Z" fill="#FD8415"/>
<circle cx="235.5" cy="23.5" r="21.5" fill="#FD8415"/>
<path d="M230.941 14V33.6632" stroke="white" stroke-width="2" stroke-miterlimit="10" stroke-linecap="round"/>
<path d="M230.941 14H238.152C238.936 14 239.711 14.1545 240.435 14.4545C241.159 14.7546 241.816 15.1944 242.369 15.7488C242.923 16.3032 243.362 16.9613 243.661 17.6854C243.959 18.4095 244.113 19.1854 244.111 19.9688C244.111 21.5502 243.484 23.0669 242.367 24.186C241.249 25.3051 239.734 25.9351 238.152 25.9377H229" stroke="white" stroke-width="2" stroke-miterlimit="10" stroke-linecap="round"/>
<path d="M229 28.8202H235.046" stroke="white" stroke-width="2" stroke-miterlimit="10" stroke-linecap="round"/>
<path d="M124.292 39.5241L124.888 38.7008C125.606 37.7081 125.775 36.4351 125.343 35.2906L124.59 33.311L128.678 31.7636L122.961 16.698L108.608 22.1461C108.012 22.3739 107.539 22.8176 107.276 23.4016C107.013 23.9855 106.996 24.6337 107.224 25.2293L107.34 25.5446L105.326 26.3096C104.263 26.7125 103.732 27.9038 104.135 28.9607L106.611 35.4833C106.803 35.9972 107.189 36.4059 107.691 36.6278C107.959 36.7504 108.246 36.8088 108.532 36.8088C108.777 36.8088 109.022 36.7621 109.262 36.6745L111.276 35.9096C111.656 36.8147 112.543 37.3752 113.484 37.3752C113.764 37.3752 114.05 37.3227 114.33 37.2176L114.867 37.0132L120.316 47.7168C120.52 48.1256 120.935 48.365 121.367 48.365C121.507 48.365 121.647 48.3416 121.787 48.2891L126.464 46.5139C126.78 46.3913 127.031 46.1402 127.154 45.8248C127.276 45.5095 127.253 45.1533 127.095 44.8555L124.292 39.5241ZM112.649 26.333L112.024 24.6979L120.602 21.4396L120.689 21.6731L121.221 23.0746L114.19 25.7432L112.649 26.333Z" fill="#FD8415"/>
<path d="M150.645 34.5316C150.371 34.8586 149.968 35.0397 149.548 35.0397C149.454 35.0397 149.355 35.028 149.256 35.0105L130.756 31.2207L124.859 15.6821L136.187 0.575583C136.502 0.155146 137.022 -0.0609109 137.542 0.0150012C138.062 0.0909132 138.499 0.441277 138.686 0.931786L150.891 33.0951C151.083 33.5798 150.984 34.1346 150.645 34.5316Z" fill="#FD8415"/>
<path d="M155.626 14.1523L150.441 16.1143L150.026 15.0224L149.612 13.9304L154.797 11.9684L155.212 13.0603L155.626 14.1523Z" fill="#FD8415"/>
<path d="M149.834 4.26042L145.997 8.26041L145.15 7.45457L144.31 6.64874L148.146 2.64291L148.987 3.45459L149.834 4.26042Z" fill="#FD8415"/>
<path d="M157.022 23.2088L156.835 25.5329L151.305 25.0891L151.498 22.7592L157.022 23.2088Z" fill="#FD8415"/>
</svg>
