<svg width="265" height="56" viewBox="0 0 265 56" fill="none" xmlns="http://www.w3.org/2000/svg">
<path d="M72.4882 29.117V23.717H75.9442V29.117H81.3442V32.573H75.9442V38H72.4882V32.573H67.0882V29.117H72.4882Z" fill="#1F1F1F"/>
<path d="M189.088 29.522V26.039H203.344V29.522H189.088ZM189.088 35.678V32.195H203.344V35.678H189.088Z" fill="#1F1F1F"/>
<path fill-rule="evenodd" clip-rule="evenodd" d="M0 6.25675V11.6854H43.4227V6.25675C43.4227 5.39369 43.0787 4.56524 42.4681 3.95462C41.8574 3.344 41.031 3 40.1659 3H3.25675C2.39369 3 1.56527 3.34397 0.954619 3.95462C0.343996 4.56527 0 5.39166 0 6.25675ZM43.4227 43.1373V13.8572H0V43.1373C0 44.0003 0.343965 44.8288 0.954619 45.4394C1.56527 46.05 2.39166 46.394 3.25675 46.394H40.1659C41.029 46.394 41.8574 46.0501 42.4681 45.4394C43.0787 44.8288 43.4227 44.0024 43.4227 43.1373ZM16.3101 8.27203C16.3101 7.52298 16.9187 6.91436 17.6678 6.91436C18.4168 6.91436 19.0254 7.52298 19.0254 8.27203C19.0254 9.02109 18.4148 9.62971 17.6678 9.62971C16.9187 9.62971 16.3101 9.02109 16.3101 8.27203ZM5.48359 8.27203C5.48359 7.52298 6.09221 6.91436 6.84127 6.91436C7.59032 6.91436 8.19894 7.52298 8.19894 8.27203C8.19894 9.02109 7.59032 9.62971 6.84127 9.62971C6.09221 9.62971 5.48359 9.02109 5.48359 8.27203ZM10.8961 8.27203C10.8961 7.52298 11.5067 6.91436 12.2537 6.91436C13.0028 6.91436 13.6114 7.52298 13.6114 8.27203C13.6114 9.02109 13.0028 9.62971 12.2537 9.62971C11.5047 9.62971 10.8961 9.02109 10.8961 8.27203ZM37.9982 9.51366H28.216C27.6176 9.51366 27.1311 9.02718 27.1311 8.42877C27.1311 7.83036 27.6176 7.34388 28.216 7.34388H37.9982C38.5966 7.34388 39.0831 7.83036 39.0831 8.42877C39.0831 9.02719 38.5966 9.51366 37.9982 9.51366Z" fill="#34AA16"/>
<path d="M137.109 14.9572C141.239 14.9572 144.587 11.6089 144.587 7.4786C144.587 3.34828 141.239 0 137.109 0C132.979 0 129.63 3.34828 129.63 7.4786C129.63 11.6089 132.979 14.9572 137.109 14.9572Z" fill="#34AA16"/>
<path d="M158.476 13.8888C162.017 13.8888 164.886 11.0189 164.886 7.47859C164.886 3.93832 162.017 1.06836 158.476 1.06836C154.936 1.06836 152.066 3.93832 152.066 7.47859C152.066 11.0189 154.936 13.8888 158.476 13.8888Z" fill="#34AA16"/>
<path d="M115.741 13.8888C119.282 13.8888 122.152 11.0189 122.152 7.47859C122.152 3.93832 119.282 1.06836 115.741 1.06836C112.201 1.06836 109.331 3.93832 109.331 7.47859C109.331 11.0189 112.201 13.8888 115.741 13.8888Z" fill="#34AA16"/>
<path d="M170.1 36.8908C169.918 36.5383 169.555 36.3246 169.16 36.3246H163.818C161.831 36.3246 160.175 37.6921 159.694 39.5297H152.013C151.746 35.769 150.1 32.393 147.557 29.9144H168.092C168.679 29.9144 169.16 29.4336 169.16 28.846V24.5725C169.16 18.6858 164.363 13.8888 158.476 13.8888C153.946 13.8888 149.983 16.7948 148.466 20.8759C145.955 17.3076 141.799 14.9572 137.109 14.9572C132.419 14.9572 128.273 17.2969 125.752 20.8759C124.224 16.7948 120.271 13.8888 115.741 13.8888C109.855 13.8888 105.058 18.6858 105.058 24.5725V28.846C105.058 29.4336 105.538 29.9144 106.126 29.9144H126.66C124.117 32.393 122.472 35.769 122.205 39.5297H110.4V38.4613C110.4 38.0874 110.207 37.7455 109.897 37.5532C109.588 37.3609 109.192 37.3395 108.861 37.5105L104.588 39.6472C104.224 39.8288 104 40.2028 104 40.5981C104 40.9934 104.224 41.378 104.588 41.5489L108.861 43.6857C109.011 43.7604 109.171 43.8032 109.342 43.8032C109.534 43.8032 109.737 43.7498 109.908 43.6429C110.218 43.4506 110.41 43.1087 110.41 42.7348V41.6664H122.216C122.771 49.4121 129.235 55.5553 137.119 55.5553C145.004 55.5553 151.468 49.4121 152.023 41.6664H159.705C160.186 43.504 161.842 44.8716 163.829 44.8716H169.171C169.566 44.8716 169.929 44.6579 170.111 44.3053C170.292 43.9528 170.271 43.5361 170.057 43.2049L168.316 40.5874L170.057 37.9699C170.271 37.6387 170.292 37.222 170.111 36.8695L170.1 36.8908ZM137.109 43.8032C138.498 43.8032 139.673 42.9058 140.122 41.6664H145.581C145.058 45.8758 141.457 49.145 137.109 49.145C132.397 49.145 128.562 45.3096 128.562 40.5981C128.562 35.8866 132.397 32.0511 137.109 32.0511C141.457 32.0511 145.058 35.3203 145.581 39.5297H140.122C139.684 38.2904 138.508 37.393 137.109 37.393C135.346 37.393 133.904 38.8353 133.904 40.5981C133.904 42.3609 135.346 43.8032 137.109 43.8032ZM144.769 27.7776C142.525 26.4315 139.908 25.6409 137.109 25.6409C134.31 25.6409 131.692 26.4315 129.449 27.7776H125.41C125.955 21.7947 130.987 17.0939 137.109 17.0939C143.231 17.0939 148.263 21.7947 148.807 27.7776H144.769Z" fill="#34AA16"/>
<circle cx="243.5" cy="24.5" r="21.5" fill="#34AA16"/>
<path d="M238.941 15V34.6632" stroke="white" stroke-width="2" stroke-miterlimit="10" stroke-linecap="round"/>
<path d="M238.941 15H246.152C246.936 15 247.711 15.1545 248.435 15.4545C249.159 15.7546 249.816 16.1944 250.369 16.7488C250.923 17.3032 251.362 17.9613 251.661 18.6854C251.959 19.4095 252.113 20.1854 252.111 20.9688C252.111 22.5502 251.484 24.0669 250.367 25.186C249.249 26.3051 247.734 26.9351 246.152 26.9377H237" stroke="white" stroke-width="2" stroke-miterlimit="10" stroke-linecap="round"/>
<path d="M237 29.8202H243.046" stroke="white" stroke-width="2" stroke-miterlimit="10" stroke-linecap="round"/>
</svg>
