<svg width="78" height="78" viewBox="0 0 78 78" fill="none" xmlns="http://www.w3.org/2000/svg">
<path fill-rule="evenodd" clip-rule="evenodd" d="M25.9058 64.6017H52.0942V66H25.9058V64.6017ZM47.7419 29.9847H46.6802C46.6563 32.5835 45.3437 34.8856 43.3597 36.2732L44.2807 37.8627L39.2608 41.4535L42.7405 45.7481L46.4426 38.6755C52.2767 38.8366 57 43.6927 57 49.6063V57.1581H52.8971L51.3862 63.9941H26.6125L25.1022 57.1581H21V49.6063C21 43.6927 25.7233 38.8366 31.5574 38.6755L35.2595 45.7481L38.7392 41.4535L33.7193 37.8627L34.6397 36.2732C32.6596 34.8869 31.355 32.5875 31.3198 29.9847H30.2581C28.3417 29.9847 27.4088 27.6452 28.7459 26.299L28.8474 19.5212C28.8752 17.6363 34.1553 14.25 35.8421 13.7273C38.6251 12.8657 47.4313 12.9412 47.2263 13.0983C45.9861 14.0515 45.5103 15.0956 45.9044 16.2379C46.1506 16.9518 48.3099 17.4571 48.929 18.1884C49.7372 19.1429 49.5056 24.9742 49.5236 26.5577C50.5176 27.7903 49.5116 29.9847 47.7419 29.9847ZM51.8607 47.8423H26.1393C25.3318 47.8423 24.6656 48.4887 24.6384 49.3001L27.6171 62.7247H50.3829L53.3616 49.3001C53.3344 48.4887 52.6682 47.8423 51.8607 47.8423Z" fill="#1F1F1F"/>
<path fill-rule="evenodd" clip-rule="evenodd" d="M64.6835 68.3428L9.64948 13.3087C10.5349 12.2983 11.4716 11.334 12.4557 10.4199L67.5724 65.5366C66.6583 66.5207 65.694 67.4574 64.6835 68.3428Z" fill="#FD8415"/>
<circle cx="39" cy="39" r="36.5" stroke="#FD8415" stroke-width="5"/>
</svg>
