<svg width="78" height="78" viewBox="0 0 78 78" fill="none" xmlns="http://www.w3.org/2000/svg">
<path d="M36.753 53.5262L37.3034 52.7653C37.9672 51.8479 38.1237 50.6715 37.7243 49.6138L37.0282 47.7844L40.8057 46.3543L35.5226 32.4315L22.2581 37.4664C21.7077 37.6769 21.2706 38.087 21.0277 38.6266C20.7849 39.1663 20.7687 39.7653 20.9792 40.3157L21.0871 40.6071L19.2253 41.3141C18.2432 41.6864 17.7521 42.7873 18.1245 43.764L20.4125 49.7919C20.5906 50.2667 20.9468 50.6445 21.4109 50.8496C21.6591 50.9629 21.9235 51.0169 22.188 51.0169C22.4146 51.0169 22.6413 50.9737 22.8625 50.8927L24.7243 50.1858C25.0751 51.0222 25.8953 51.5403 26.7642 51.5403C27.0232 51.5403 27.2876 51.4917 27.5466 51.3946L28.0431 51.2057L33.078 61.0974C33.2669 61.4751 33.65 61.6964 34.0493 61.6964C34.1789 61.6964 34.3084 61.6748 34.4379 61.6262L38.7604 59.9857C39.0518 59.8724 39.2839 59.6404 39.3972 59.349C39.5105 59.0575 39.489 58.7284 39.3432 58.4531L36.753 53.5262ZM25.9925 41.3356L25.415 39.8246L33.3424 36.8134L33.4234 37.0293L33.9144 38.3244L27.4171 40.7906L25.9925 41.3356Z" fill="#1F1F1F"/>
<path d="M61.107 48.9122C60.8534 49.2144 60.481 49.3817 60.0925 49.3817C60.0062 49.3817 59.9144 49.3709 59.8227 49.3547L42.7268 45.8524L37.2764 31.4925L47.7455 17.5319C48.0369 17.1434 48.5171 16.9437 48.9974 17.0139C49.4777 17.084 49.8824 17.4078 50.0551 17.8611L61.3337 47.5847C61.5118 48.0326 61.42 48.5453 61.107 48.9122Z" fill="#1F1F1F"/>
<path d="M65.7102 30.0787L60.9182 31.8919L60.535 30.8828L60.1519 29.8736L64.9439 28.0604L65.327 29.0696L65.7102 30.0787Z" fill="#1F1F1F"/>
<path d="M67 38.4485L66.8273 40.5963L61.7169 40.1861L61.895 38.033L67 38.4485Z" fill="#1F1F1F"/>
<path fill-rule="evenodd" clip-rule="evenodd" d="M64.6835 68.3428L9.64941 13.3087C10.5348 12.2983 11.4716 11.334 12.4556 10.4199L67.5723 65.5366C66.6582 66.5207 65.6939 67.4574 64.6835 68.3428Z" fill="#FD8415"/>
<circle cx="39" cy="39" r="36.5" stroke="#FD8415" stroke-width="5"/>
</svg>
