<svg width="78" height="78" viewBox="0 0 78 78" fill="none" xmlns="http://www.w3.org/2000/svg">
<path fill-rule="evenodd" clip-rule="evenodd" d="M19.0014 21.9395V26.8394H58.1945V21.9395C58.1945 21.1605 57.884 20.4128 57.3329 19.8616C56.7817 19.3105 56.0358 19 55.255 19H21.9409C21.1619 19 20.4142 19.3105 19.863 19.8616C19.3119 20.4128 19.0014 21.1587 19.0014 21.9395ZM58.1945 55.2277V28.7997H19.0014V55.2277C19.0014 56.0067 19.3119 56.7544 19.863 57.3056C20.4142 57.8567 21.1601 58.1672 21.9409 58.1672H55.255C56.034 58.1672 56.7817 57.8568 57.3329 57.3056C57.884 56.7544 58.1945 56.0085 58.1945 55.2277ZM33.7228 23.7585C33.7228 23.0824 34.2721 22.5331 34.9482 22.5331C35.6243 22.5331 36.1737 23.0824 36.1737 23.7585C36.1737 24.4346 35.6225 24.9839 34.9482 24.9839C34.2721 24.9839 33.7228 24.4346 33.7228 23.7585ZM23.9509 23.7585C23.9509 23.0824 24.5002 22.5331 25.1763 22.5331C25.8524 22.5331 26.4017 23.0824 26.4017 23.7585C26.4017 24.4346 25.8524 24.9839 25.1763 24.9839C24.5002 24.9839 23.9509 24.4346 23.9509 23.7585ZM28.8361 23.7585C28.8361 23.0824 29.3873 22.5331 30.0616 22.5331C30.7376 22.5331 31.287 23.0824 31.287 23.7585C31.287 24.4346 30.7376 24.9839 30.0616 24.9839C29.3855 24.9839 28.8361 24.4346 28.8361 23.7585ZM53.2984 24.8792H44.469C43.9289 24.8792 43.4898 24.4401 43.4898 23.9C43.4898 23.3599 43.9289 22.9208 44.469 22.9208H53.2984C53.8385 22.9208 54.2776 23.3599 54.2776 23.9C54.2776 24.4401 53.8385 24.8792 53.2984 24.8792Z" fill="#1F1F1F"/>
<path d="M34.3927 34.5208V52.2686" stroke="white" stroke-width="2" stroke-miterlimit="10" stroke-linecap="round"/>
<path d="M34.3928 34.5208H40.9015C41.6086 34.5208 42.3088 34.6602 42.9619 34.931C43.615 35.2019 44.2084 35.5988 44.7079 36.0992C45.2075 36.5996 45.6035 37.1936 45.8733 37.8472C46.1431 38.5007 46.2814 39.2011 46.2802 39.9082C46.2802 41.3355 45.7138 42.7045 44.7054 43.7146C43.6969 44.7247 42.3289 45.2933 40.9015 45.2956H32.6408" stroke="white" stroke-width="2" stroke-miterlimit="10" stroke-linecap="round"/>
<path d="M32.6408 47.8973H38.0983" stroke="white" stroke-width="2" stroke-miterlimit="10" stroke-linecap="round"/>
<path fill-rule="evenodd" clip-rule="evenodd" d="M64.6835 68.3428L9.64948 13.3087C10.5349 12.2983 11.4716 11.334 12.4557 10.4199L67.5724 65.5366C66.6583 66.5207 65.694 67.4574 64.6835 68.3428Z" fill="#FD8415"/>
<circle cx="39" cy="39" r="36.5" stroke="#FD8415" stroke-width="5"/>
</svg>
