<svg width="60" height="60" viewBox="0 0 60 60" fill="none" xmlns="http://www.w3.org/2000/svg">
<circle cx="30" cy="30" r="30" fill="#FD8415"/>
<path d="M42.2232 38.7485H41.1489L39.6529 28.7187C39.591 28.2544 39.4879 27.7901 39.3434 27.3362C39.1577 27.4703 38.9617 27.5838 38.7553 27.687C38.7244 27.7076 38.6934 27.7179 38.6522 27.7282C38.4252 27.8417 38.1776 27.9346 37.93 27.9965C37.9196 27.9965 37.899 28.0068 37.8784 28.0068C37.7133 28.0481 37.5379 28.079 37.3728 28.0997C37.1871 28.1306 36.9911 28.1409 36.8054 28.1409C34.3498 28.1409 32.3483 26.1394 32.3483 23.6838C32.3483 23.4878 32.3586 23.2918 32.3896 23.1061C32.4102 22.941 32.4411 22.7759 32.4824 22.6211C32.4927 22.5695 32.503 22.5076 32.534 22.4457C32.6165 22.1362 32.73 21.8473 32.8848 21.5688C32.9054 21.5378 32.9157 21.5069 32.9364 21.4759C33.0499 21.2696 33.184 21.0839 33.3284 20.9085C32.8229 20.7124 32.2967 20.568 31.7705 20.4648C31.8634 20.2481 31.9046 20.0005 31.9046 19.7529C31.9046 18.618 30.9761 17.6895 29.8412 17.6895C28.7063 17.6895 27.7777 18.618 27.7777 19.7529C27.7777 20.0005 27.819 20.2481 27.9118 20.4648C23.8985 21.2695 20.6587 24.5505 20.0294 28.7187L18.5334 38.7471L17.463 38.7484C17.0361 38.7484 16.6891 39.0953 16.6891 39.5222C16.6891 39.9491 17.0361 40.296 17.463 40.296H19.1963C19.1963 40.296 19.2001 40.2947 19.2027 40.2947H25.437C25.7982 42.3995 27.6449 43.9987 29.8426 43.9987C32.0403 43.9987 33.887 42.3995 34.2482 40.2947H40.4865C40.4865 40.2947 40.4903 40.296 40.4929 40.296H42.2262C42.6531 40.296 43 39.9491 43 39.5222C43 39.0953 42.6531 38.7484 42.2262 38.7484L42.2232 38.7485Z" fill="white"/>
<path d="M36.8054 26.5935C37.2491 26.5935 37.6824 26.4903 38.0745 26.3046C39.0856 25.8094 39.7149 24.8086 39.7149 23.684C39.7149 22.0848 38.415 20.7745 36.8055 20.7745C35.7634 20.7745 34.7936 21.342 34.2777 22.2396C34.0301 22.6729 33.896 23.1785 33.896 23.684C33.896 25.2832 35.2062 26.5935 36.8054 26.5935Z" fill="white"/>
</svg>
