<svg width="60" height="60" viewBox="0 0 60 60" fill="none" xmlns="http://www.w3.org/2000/svg">
<circle cx="30" cy="30" r="30" fill="#FD8415"/>
<path d="M25.7362 26.5198H20.5168C21.3158 26.9528 22.2172 27.1666 23.1265 27.1378C24.0358 27.1666 24.9359 26.9527 25.7362 26.5198Z" fill="white"/>
<path d="M27.7173 30.5374H32.9407C32.1391 30.1057 31.2377 29.8944 30.3284 29.922C29.4192 29.8945 28.519 30.1057 27.7173 30.5374Z" fill="white"/>
<path d="M40.1453 26.5198H34.9232C35.7222 26.9528 36.6236 27.1666 37.5329 27.1378C38.4434 27.1666 39.3449 26.9527 40.1453 26.5198Z" fill="white"/>
<path d="M44.4017 31.6147H16.2707C15.8732 31.616 15.4914 31.7747 15.2092 32.0555C14.9232 32.3324 14.7605 32.7142 14.7592 33.1131C14.7605 33.5132 14.9206 33.8964 15.204 34.1772C15.4874 34.4593 15.8705 34.6167 16.2707 34.6141H32.5813L32.6758 34.6613L32.7572 34.7296L32.7978 34.7729L32.8214 34.7991L34.6584 37.3314H34.6571C34.846 37.5938 35.1517 37.7447 35.4745 37.7355C35.7959 37.7316 36.0938 37.5676 36.2696 37.2986L37.9123 34.8201C37.9333 34.7912 37.9556 34.7637 37.9792 34.7387C37.9884 34.7309 37.9989 34.723 38.0094 34.7151C38.0265 34.6994 38.0448 34.6849 38.0632 34.6718H38.0934L38.1538 34.6377H38.1747C38.2154 34.6259 38.2561 34.6167 38.2981 34.6115H44.4019C44.8126 34.6311 45.2115 34.4816 45.5093 34.1981C45.8059 33.9147 45.9738 33.5224 45.9738 33.1117C45.9738 32.701 45.8058 32.3088 45.5093 32.0253C45.2115 31.7419 44.8126 31.5923 44.4019 31.612L44.4017 31.6147Z" fill="white"/>
<path d="M45.4568 25.4451C45.8333 24.9675 46.0249 24.3719 45.9974 23.7657C45.9974 19.3991 39.0145 15.8655 30.4281 15.8655C21.843 15.8642 14.8537 19.4122 14.8537 23.768C14.8262 24.3742 15.0178 24.9712 15.3943 25.4475L45.4568 25.4451ZM33.5588 22.5192C33.3712 22.7488 33.034 22.7829 32.803 22.5966L32.269 22.1597C32.1431 22.0757 32.0578 21.9432 32.0355 21.7936C32.0119 21.6441 32.0525 21.4919 32.1483 21.3738C32.2428 21.257 32.3832 21.1835 32.5341 21.1756C32.6849 21.1665 32.8332 21.2216 32.9408 21.3265L33.4748 21.7635C33.5863 21.8527 33.6585 21.9826 33.6742 22.1243C33.69 22.266 33.648 22.4077 33.5588 22.5192ZM41.5403 21.3803C41.6046 21.2531 41.7161 21.156 41.8512 21.1114C41.9877 21.0667 42.1346 21.0772 42.2619 21.1415L43.3798 21.6992H43.3811C43.6042 21.8107 43.7222 22.0626 43.6658 22.3054C43.6094 22.5494 43.3929 22.7226 43.1423 22.7239C43.0583 22.7226 42.9757 22.7029 42.9009 22.6662L41.7988 22.0994C41.5311 21.9708 41.4156 21.6506 41.5403 21.3803ZM40.3542 22.573C40.6363 22.5953 40.8528 22.8302 40.8528 23.1123C40.8528 23.3944 40.6363 23.6293 40.3542 23.6516H39.8202C39.5394 23.6293 39.3216 23.3944 39.3216 23.1123C39.3216 22.8302 39.5394 22.5953 39.8202 22.573H40.3542ZM38.1682 18.1856C38.2863 18.1069 38.432 18.078 38.571 18.1056C38.7114 18.1331 38.8348 18.2158 38.9135 18.3339L39.6627 19.4452C39.8254 19.6945 39.7598 20.0278 39.5144 20.1944C39.4252 20.2534 39.3215 20.2849 39.2153 20.2849C39.0368 20.281 38.8728 20.1878 38.7757 20.0369L38.0304 18.9217C37.8677 18.6803 37.9294 18.3522 38.1682 18.1856ZM37.1606 21.6483V21.6496C37.4492 21.7192 37.6277 22.0078 37.5594 22.2978L37.4518 22.7242C37.3954 22.9669 37.1776 23.1388 36.9283 23.1375C36.8876 23.1428 36.8457 23.1428 36.8037 23.1375C36.515 23.068 36.3366 22.778 36.4048 22.4893L36.5019 22.0524C36.5334 21.912 36.62 21.7913 36.742 21.7152C36.864 21.6404 37.011 21.6168 37.15 21.6496L37.1606 21.6483ZM34.8093 19.3141L35.733 18.9979V18.9992C35.9941 18.9546 36.2487 19.1081 36.3327 19.3587C36.4166 19.6106 36.3038 19.8849 36.0689 20.0069L35.1491 20.3231H35.1478C35.0914 20.3415 35.0324 20.3507 34.9733 20.3494C34.7083 20.3533 34.48 20.1617 34.4367 19.9006C34.3921 19.6382 34.5469 19.3837 34.7988 19.301L34.8093 19.3141ZM32.6365 16.9629H33.5103L33.509 16.9642C33.6599 16.9524 33.8082 17.0035 33.9184 17.1059C34.0299 17.2082 34.0929 17.3526 34.0929 17.5021C34.0929 17.653 34.0299 17.7974 33.9184 17.8997C33.8082 18.002 33.6599 18.0532 33.509 18.0414H32.6352C32.3544 18.0191 32.1379 17.7856 32.1379 17.5021C32.1379 17.22 32.3544 16.9865 32.6352 16.9642L32.6365 16.9629ZM30.6211 17.6176L30.6198 17.6189C30.7628 17.6097 30.9032 17.6583 31.0108 17.7527C31.1171 17.8485 31.1814 17.9824 31.188 18.1254L31.2378 18.9992C31.2431 19.1423 31.1906 19.2813 31.0922 19.3863C30.9938 19.4912 30.8573 19.5529 30.7143 19.5569H30.6841C30.3981 19.5555 30.1632 19.3312 30.1462 19.0465L30.0989 18.1726H30.1002C30.0858 17.8839 30.3023 17.6346 30.5896 17.6084L30.6211 17.6176ZM29.9494 20.9529L29.948 20.9542C30.0425 21.0618 30.0897 21.2035 30.0792 21.3478C30.0687 21.4909 30.0005 21.6234 29.8916 21.7166L28.9718 22.5799H28.9705C28.8708 22.6744 28.7383 22.7269 28.6018 22.7282C28.4522 22.7282 28.3092 22.6652 28.2082 22.5563C28.0048 22.3385 28.0153 21.9986 28.2318 21.794L29.1555 20.9306C29.3707 20.7246 29.7105 20.7312 29.9178 20.9438L29.9494 20.9529ZM27.11 17.4509C27.1428 17.3118 27.2294 17.1911 27.3514 17.1163C27.4735 17.0415 27.6191 17.0179 27.7582 17.0507L28.7659 17.2961C29.0322 17.3564 29.2106 17.607 29.1818 17.8773C29.1516 18.1489 28.9246 18.3549 28.6517 18.3576C28.611 18.3628 28.5691 18.3628 28.5271 18.3576L27.5194 18.1122C27.3751 18.0833 27.2491 17.9954 27.1717 17.8695C27.0943 17.7448 27.072 17.5926 27.11 17.4509ZM26.2296 19.8021H26.7636C27.0457 19.8244 27.2622 20.0593 27.2622 20.3414C27.2622 20.6235 27.0457 20.8584 26.7636 20.8807H26.2296C26.08 20.8925 25.9318 20.84 25.8202 20.7377C25.71 20.6353 25.647 20.4923 25.647 20.3414C25.647 20.1905 25.71 20.0462 25.8202 19.9439C25.9318 19.8415 26.08 19.7903 26.2296 19.8021ZM24.4399 18.3982L24.7758 17.5244C24.8861 17.2488 25.197 17.1137 25.4739 17.2186C25.609 17.2698 25.7166 17.3721 25.7743 17.5034C25.8307 17.6359 25.8334 17.7841 25.7796 17.918L25.4437 18.7918V18.7905C25.3623 18.9952 25.1629 19.1277 24.9438 19.1264C24.8769 19.1264 24.8112 19.1133 24.7483 19.0897C24.4819 18.9821 24.3455 18.6843 24.4399 18.4113L24.4399 18.3982ZM24.3324 23.0601L24.6013 22.2374C24.6932 21.954 24.9989 21.8005 25.281 21.8923C25.5644 21.9855 25.7179 22.2899 25.626 22.5733L25.3571 23.396C25.2875 23.619 25.0802 23.7699 24.8467 23.7686C24.785 23.7686 24.7247 23.7555 24.6682 23.7319C24.3927 23.6361 24.2431 23.3382 24.3324 23.0601ZM21.5416 18.6293C21.6387 18.5204 21.7764 18.4561 21.9234 18.4509C22.0703 18.4456 22.212 18.5007 22.317 18.6031L23.0426 19.2748C23.2119 19.4284 23.2656 19.6711 23.1791 19.8823C23.0911 20.0923 22.8812 20.2261 22.6529 20.2156C22.5165 20.2143 22.3852 20.1631 22.2829 20.0713L21.5573 19.3995C21.451 19.3011 21.3893 19.1633 21.3854 19.0177C21.3828 18.8734 21.4392 18.7329 21.5416 18.6293ZM19.7781 22.7242L20.1678 22.0957C20.3227 21.8424 20.6546 21.7637 20.9078 21.9199C21.1611 22.076 21.2398 22.4066 21.0836 22.6599L20.6953 23.2949C20.53 23.5324 20.2098 23.598 19.9645 23.4458C19.7204 23.2936 19.6377 22.9761 19.7781 22.7242ZM17.6381 20.4871C17.7339 20.2115 18.0318 20.062 18.3099 20.1512L19.0394 20.3834H19.0381C19.294 20.4608 19.4541 20.7154 19.4121 20.9804C19.3714 21.2441 19.1418 21.4383 18.8741 21.4344C18.8177 21.4331 18.7626 21.4239 18.7101 21.4068L17.9845 21.1746V21.1759C17.8467 21.1313 17.7326 21.0342 17.667 20.9056C17.6014 20.777 17.5909 20.6274 17.6381 20.491L17.6381 20.4871Z" fill="white"/>
<path d="M44.7417 26.5197C43.3155 26.4882 41.9063 26.8188 40.6428 27.4801C39.6876 27.9918 38.6156 28.2451 37.5332 28.2162C36.4507 28.2451 35.38 27.9905 34.4262 27.4801C33.1626 26.8188 31.7535 26.4882 30.3286 26.5197C28.9024 26.4882 27.4932 26.8188 26.2297 27.4801C25.2772 27.9918 24.2078 28.2451 23.1267 28.2162C22.0442 28.2451 20.9735 27.9905 20.0196 27.4801C18.7614 26.8202 17.3561 26.4895 15.9352 26.5197C15.2936 26.5197 14.7727 27.0393 14.7727 27.6822C14.7727 28.3238 15.2936 28.8434 15.9352 28.8434C17.0177 28.8132 18.0883 29.0664 19.0422 29.5794C20.3057 30.2381 21.7149 30.5661 23.1398 30.5333C24.5594 30.5635 25.9633 30.2355 27.2215 29.5794C28.1741 29.0664 29.246 28.8132 30.3285 28.8434C31.411 28.8132 32.483 29.0664 33.4381 29.5794C34.7004 30.2381 36.1095 30.5661 37.533 30.5333C38.9579 30.5661 40.3671 30.2381 41.6306 29.5794C42.5858 29.0664 43.6577 28.8132 44.7415 28.8434C45.3831 28.8434 45.9027 28.3238 45.9027 27.6822C45.9027 27.0393 45.3833 26.5197 44.7417 26.5197Z" fill="white"/>
<path d="M44.9187 35.69H38.6509L37.1657 37.9231H37.167C36.7943 38.49 36.1658 38.8364 35.4875 38.8469H35.4508C34.7868 38.8495 34.1636 38.5346 33.7713 38.0006L32.0918 35.69H15.7406C15.1987 35.69 14.7592 36.1282 14.7592 36.6701V39.5187C14.7683 40.3453 15.4441 41.0079 16.2707 41H44.4017C45.223 41 45.8922 40.3401 45.9027 39.5187V36.6701C45.9014 36.1282 45.4619 35.69 44.9187 35.69Z" fill="white"/>
</svg>
