<svg width="60" height="60" viewBox="0 0 60 60" fill="none" xmlns="http://www.w3.org/2000/svg">
<circle cx="30" cy="30" r="30" fill="#FD8415"/>
<path d="M42.9999 19.0207C42.9999 20.6882 40.2939 22.0418 36.9582 22.0418C33.6203 22.0418 30.9164 20.6882 30.9164 19.0207C30.9164 17.3521 33.6203 16 36.9582 16C40.2939 16 42.9999 17.3521 42.9999 19.0207Z" fill="white"/>
<path d="M34.5417 25.6663C34.5417 27.3342 31.8357 28.6874 28.5 28.6874C25.1617 28.6874 22.4582 27.3342 22.4582 25.6663C22.4582 23.9978 25.1617 22.6456 28.5 22.6456C31.8357 22.6456 34.5417 23.9978 34.5417 25.6663Z" fill="white"/>
<path d="M20.0418 37.1461C17.5318 37.1461 15.4061 36.5252 14 35.5011V37.1461C14 38.8133 16.7035 40.1668 20.0418 40.1668C23.3771 40.1668 26.0835 38.8133 26.0835 37.1461V35.5011C24.6767 36.5252 22.5514 37.1461 20.0418 37.1461Z" fill="white"/>
<path d="M26.0835 32.3126C26.0835 33.9801 23.3771 35.3336 20.0418 35.3336C16.7035 35.3336 14 33.9801 14 32.3126C14 30.644 16.7035 29.2919 20.0418 29.2919C23.3771 29.2919 26.0835 30.644 26.0835 32.3126Z" fill="white"/>
<path d="M20.0418 41.9789C17.5318 41.9789 15.4061 41.3583 14 40.3342V41.9789C14 43.6467 16.7035 45 20.0418 45C23.3771 45 26.0835 43.6467 26.0835 41.9789V40.3342C24.6767 41.3583 22.5514 41.9789 20.0418 41.9789Z" fill="white"/>
<path d="M36.9581 23.8542C36.5547 23.8542 36.1784 23.8129 35.796 23.781C36.1559 24.352 36.3542 24.9871 36.3542 25.6664V26.8445C36.5561 26.855 36.7519 26.875 36.9581 26.875C40.2938 26.875 42.9999 25.5214 42.9999 23.8542V22.2092C41.5934 23.2333 39.4681 23.8542 36.9581 23.8542Z" fill="white"/>
<path d="M28.4999 30.4998C28.0965 30.4998 27.7198 30.4584 27.3374 30.4265C27.6977 30.9978 27.8957 31.6326 27.8957 32.3123V33.4897C28.0976 33.5002 28.2922 33.5205 28.4999 33.5205C31.8357 33.5205 34.5417 32.1673 34.5417 30.4998V28.8551C33.1352 29.8792 31.0099 30.4998 28.4999 30.4998Z" fill="white"/>
<path d="M28.4999 40.1666C28.2901 40.1666 28.0998 40.1369 27.8957 40.1289V41.9791C27.8957 42.3862 27.8177 42.7755 27.6843 43.1467C27.9533 43.1656 28.2212 43.1881 28.4999 43.1881C31.8357 43.1881 34.5417 41.8341 34.5417 40.167V38.522C33.1352 39.5457 31.0099 40.1666 28.4999 40.1666Z" fill="white"/>
<path d="M36.9581 38.3543C36.7483 38.3543 36.5579 38.3245 36.3542 38.3166V40.1667C36.3542 40.5738 36.2763 40.9628 36.1429 41.3336C36.4119 41.3525 36.6787 41.375 36.9581 41.375C40.2939 41.375 42.9999 40.0217 42.9999 38.3543V36.7092C41.5934 37.7333 39.4681 38.3543 36.9581 38.3543Z" fill="white"/>
<path d="M28.5 35.3336C28.2901 35.3336 28.0998 35.3039 27.8957 35.2959V38.3239C28.0976 38.3344 28.2923 38.3547 28.5 38.3547C31.8357 38.3547 34.5417 37.0015 34.5417 35.334V33.6886C33.1353 34.7127 31.0099 35.3336 28.5 35.3336Z" fill="white"/>
<path d="M36.9581 33.5206C36.7482 33.5206 36.5579 33.4913 36.3542 33.4829V36.5113C36.5561 36.5218 36.7518 36.5421 36.9581 36.5421C40.2938 36.5421 42.9999 35.1889 42.9999 33.521V31.8763C41.5934 32.9 39.4681 33.5206 36.9581 33.5206Z" fill="white"/>
<path d="M36.9581 28.6873C36.7482 28.6873 36.5579 28.6579 36.3542 28.6496V31.6775C36.5561 31.688 36.7518 31.708 36.9581 31.708C40.2938 31.708 42.9999 30.3548 42.9999 28.6873V27.0426C41.5934 28.0667 39.4681 28.6873 36.9581 28.6873Z" fill="white"/>
</svg>
