<svg width="60" height="60" viewBox="0 0 60 60" fill="none" xmlns="http://www.w3.org/2000/svg">
<circle cx="30" cy="30" r="30" fill="#FD8415"/>
<path d="M31.3119 20.5777C31.2264 20.3871 31.1035 20.2268 30.961 20.0932V31.2595C30.9379 32.5082 29.0836 32.5082 29.0605 31.2595C29.064 28.6002 29.0587 22.706 29.0605 20.0932C28.918 20.2268 28.7951 20.3871 28.7096 20.5777L21.6098 36.7047C21.0434 37.8732 22.4363 39.1842 23.5762 38.5287L30.0098 35.1551L36.4434 38.5287C37.5692 39.1913 38.9834 37.8714 38.4099 36.7047L31.3119 20.5777Z" fill="white"/>
<path d="M48.0659 29.0564H46.9063C46.4307 20.4833 39.532 13.5846 30.959 13.109V11.9494C30.959 11.424 30.5332 10.9983 30.0078 10.9983C29.4824 10.9983 29.0567 11.424 29.0567 11.9494V13.109C20.4836 13.5846 13.5849 20.4833 13.1093 29.0564H11.9497C11.4242 29.0564 10.9985 29.4821 10.9985 30.0076C10.9985 30.533 11.4242 30.9587 11.9497 30.9587H13.1093C13.5849 39.53 20.4836 46.4305 29.0567 46.9061V48.0657C29.0745 49.3018 30.9358 49.325 30.9572 48.0657V46.9061C39.5303 46.4305 46.429 39.5318 46.9046 30.9587H48.0642C49.3003 30.9409 49.3235 29.0795 48.0642 29.0581L48.0659 29.0564ZM30.9608 45.002V43.8994C30.9608 43.3739 30.5351 42.9482 30.0096 42.9482C29.4842 42.9482 29.0585 43.3739 29.0585 43.8994V45.002C21.5223 44.5264 15.4873 38.4918 15.0117 30.9552H16.1143C17.37 30.932 17.3576 29.0742 16.1143 29.0546H15.0117C15.4873 21.5184 21.5219 15.4834 29.0585 15.0078V16.1104C29.0585 16.6358 29.4842 17.0615 30.0096 17.0615C30.5351 17.0615 30.9608 16.6358 30.9608 16.1104V15.0078C38.4969 15.4834 44.532 21.518 45.0076 29.0546H43.905C43.3796 29.0546 42.9538 29.4803 42.9538 30.0057C42.9538 30.5312 43.3796 30.9569 43.905 30.9569H45.0076C44.532 38.493 38.4974 44.5281 30.9608 45.0037V45.002Z" fill="white"/>
</svg>
