<svg width="60" height="60" viewBox="0 0 60 60" fill="none" xmlns="http://www.w3.org/2000/svg">
<circle cx="30" cy="30" r="30" fill="#FD8415"/>
<path fill-rule="evenodd" clip-rule="evenodd" d="M36.9984 28.9772C37.6129 28.9772 38.1233 29.4864 38.1233 30.0994C38.1233 30.7123 37.6129 31.2215 36.9984 31.2215C36.3839 31.2215 35.8735 30.7123 35.8735 30.0994C35.8735 29.4864 36.3839 28.9772 36.9984 28.9772ZM36.9984 27.482C35.543 27.482 34.3731 28.649 34.3731 30.1008C34.3731 31.5526 35.543 32.7196 36.9984 32.7196C38.4538 32.7196 39.6237 31.5526 39.6237 30.1008C39.6237 28.649 38.4538 27.482 36.9984 27.482ZM29.4993 28.9772C30.1138 28.9772 30.6242 29.4864 30.6242 30.0994C30.6242 30.7123 30.1138 31.2215 29.4993 31.2215C28.8848 31.2215 28.3743 30.7123 28.3743 30.0994C28.3743 29.4864 28.8848 28.9772 29.4993 28.9772ZM29.4993 27.482C28.0439 27.482 26.8739 28.649 26.8739 30.1008C26.8739 31.5526 28.0439 32.7196 29.4993 32.7196C30.9547 32.7196 32.1246 31.5526 32.1246 30.1008C32.1246 28.649 30.9547 27.482 29.4993 27.482ZM22.0002 28.9772C22.6146 28.9772 23.1251 29.4864 23.1251 30.0994C23.1251 30.7123 22.6146 31.2215 22.0002 31.2215C21.3857 31.2215 20.8752 30.7123 20.8752 30.0994C20.8752 29.4864 21.3857 28.9772 22.0002 28.9772ZM22.0002 27.482C20.5448 27.482 19.3748 28.649 19.3748 30.1008C19.3748 31.5526 20.5448 32.7196 22.0002 32.7196C23.4556 32.7196 24.6255 31.5526 24.6255 30.1008C24.6255 28.649 23.4556 27.482 22.0002 27.482ZM24.61 39.4511H18.4158C17.7704 39.4511 17.1559 39.2112 16.6904 38.7778C16.2559 38.3584 16 37.7903 16 37.2068V22.2443C16 21.6608 16.2545 21.0927 16.6904 20.6733C17.1559 20.2399 17.7704 20 18.4158 20H40.5842C41.2296 20 41.8441 20.2399 42.3096 20.6733C42.7441 21.0927 43 21.6608 43 22.2443V37.2068C43 37.7903 42.7455 38.3584 42.3096 38.7778C41.8441 39.2112 41.2296 39.4511 40.5842 39.4511H34.39C33.085 39.4511 31.8701 40.1244 31.1797 41.2465L29.4993 44L27.8189 41.2465C27.1439 40.1244 25.929 39.4511 24.6086 39.4511H24.61Z" fill="white"/>
</svg>
