<svg width="60" height="60" viewBox="0 0 60 60" fill="none" xmlns="http://www.w3.org/2000/svg">
<circle cx="30" cy="30" r="30" fill="#FD8415"/>
<path d="M30 15C21.75 15 15 21.75 15 30C15 38.25 21.75 45 30 45C38.25 45 45 38.25 45 30C45 21.75 38.25 15 30 15ZM30 18.75C32.475 18.75 34.725 19.5375 36.5625 20.85L20.85 36.5625C19.5375 34.725 18.75 32.475 18.75 30C18.75 23.775 23.775 18.75 30 18.75ZM39.15 23.4375C40.4625 25.275 41.25 27.525 41.25 30C41.25 36.225 36.225 41.25 30 41.25C27.525 41.25 25.275 40.4625 23.4375 39.15L39.15 23.4375Z" fill="white"/>
</svg>
