<svg width="60" height="60" viewBox="0 0 60 60" fill="none" xmlns="http://www.w3.org/2000/svg">
<circle cx="30" cy="30" r="30" fill="#FD8415"/>
<path d="M43.8444 21.3452H17.1541C15.9789 21.3452 15 22.3241 15 23.4993V25.4571H45.9984V23.4993C45.9984 22.2923 45.0196 21.3452 43.8444 21.3452Z" fill="white"/>
<path d="M15.0003 39.488C15.0003 40.6632 15.9792 41.6421 17.1544 41.6421H43.846C45.0212 41.6421 46.0001 40.6632 46.0001 39.488V28.5237H15.0016L15.0003 39.488ZM39.1131 36.3231H42.6042C43.5181 36.3231 44.3007 37.0739 44.3007 38.0196C44.3007 38.9335 43.5499 39.7161 42.6042 39.7161H39.1131C38.1992 39.7161 37.4166 38.9654 37.4166 38.0196C37.4166 37.0739 38.1674 36.3231 39.1131 36.3231Z" fill="white"/>
</svg>
