<svg width="60" height="60" viewBox="0 0 60 60" fill="none" xmlns="http://www.w3.org/2000/svg">
<circle cx="30" cy="30" r="30" fill="#FD8415"/>
<path fill-rule="evenodd" clip-rule="evenodd" d="M41.8141 24.735C42.5097 24.785 43.1325 24.2915 43.2303 23.5902L44.0012 18.1454C44.103 17.4204 43.5926 16.7506 42.864 16.6506C42.1354 16.5506 41.4624 17.0572 41.3619 17.7822L41.0458 20.0126C39.0108 17.8046 36.4136 16.2783 33.6063 15.5308C25.3049 13.3176 16.7584 18.2282 14.533 26.4888C13.6127 29.9061 13.8613 33.6377 15.4574 37.0375C19.3239 45.2785 29.4316 48.4719 37.3589 43.918C41.5243 41.5245 44.3012 37.397 44.986 32.7441C45.0918 32.0191 44.5879 31.3454 43.8594 31.2388C43.1308 31.1322 42.4537 31.6348 42.3466 32.3598C41.2253 39.9598 33.7118 44.8983 26.234 42.9035C23.0432 42.0522 20.1763 39.9916 18.394 36.9204C14.8355 30.782 16.9474 22.919 23.1227 19.3713C28.4597 16.3068 35.1731 17.4502 39.1954 21.9306L36.4595 21.774C35.7243 21.7332 35.0962 22.2937 35.0565 23.0253C35.0169 23.7556 35.5789 24.3819 36.314 24.4214L41.8135 24.7359L41.8141 24.735ZM30.831 21.6665V30.4983C30.831 30.9878 30.5652 31.4154 30.1685 31.6444L24.4311 34.9431C23.795 35.3102 22.9791 35.0931 22.6102 34.4602C22.2413 33.8273 22.4582 33.0154 23.0955 32.6483L28.1705 29.7325V21.668C28.1705 20.9364 28.7669 20.3443 29.5008 20.3443C30.2347 20.3443 30.8311 20.9364 30.8311 21.668L30.831 21.6665Z" fill="white"/>
</svg>
