<svg width="60" height="60" viewBox="0 0 60 60" fill="none" xmlns="http://www.w3.org/2000/svg">
<circle cx="30" cy="30" r="30" fill="#FD8415"/>
<path d="M26.4814 38.3629L26.8184 37.897C27.2248 37.3353 27.3206 36.6151 27.0761 35.9675L26.6499 34.8475L28.9627 33.9719L25.7281 25.4478L17.607 28.5303C17.27 28.6592 17.0024 28.9103 16.8537 29.2407C16.705 29.5711 16.6951 29.9378 16.824 30.2748L16.8901 30.4532L15.7502 30.886C15.1489 31.114 14.8482 31.788 15.0762 32.386L16.4771 36.0765C16.5861 36.3673 16.8042 36.5986 17.0883 36.7241C17.2403 36.7935 17.4022 36.8265 17.5641 36.8265C17.7028 36.8265 17.8416 36.8001 17.9771 36.7505L19.1169 36.3177C19.3317 36.8298 19.8339 37.147 20.3658 37.147C20.5244 37.147 20.6863 37.1173 20.8449 37.0578L21.1488 36.9422L24.2314 42.9983C24.3471 43.2296 24.5816 43.365 24.8261 43.365C24.9054 43.365 24.9847 43.3518 25.064 43.3221L27.7105 42.3177C27.8889 42.2483 28.0309 42.1062 28.1003 41.9278C28.1697 41.7494 28.1565 41.5479 28.0673 41.3794L26.4814 38.3629ZM19.8933 30.8993L19.5398 29.9742L24.3933 28.1306L24.4429 28.2627L24.7435 29.0557L20.7656 30.5656L19.8933 30.8993Z" fill="white"/>
<path d="M41.3921 35.5381C41.2368 35.7231 41.0088 35.8255 40.7709 35.8255C40.718 35.8255 40.6619 35.8189 40.6057 35.809L30.1388 33.6647L26.8019 24.873L33.2115 16.3257C33.3899 16.0878 33.684 15.9655 33.978 16.0085C34.2721 16.0514 34.5199 16.2497 34.6256 16.5272L41.5308 34.7253C41.6398 34.9995 41.5837 35.3134 41.3921 35.5381Z" fill="white"/>
<path d="M44.2103 24.0073L41.2764 25.1174L41.0418 24.4996L40.8073 23.8817L43.7412 22.7716L43.9757 23.3894L44.2103 24.0073Z" fill="white"/>
<path d="M40.9328 18.4106L38.7622 20.6738L38.2831 20.2178L37.8073 19.7619L39.978 17.4954L40.4538 17.9546L40.9328 18.4106Z" fill="white"/>
<path d="M45 29.1317L44.8943 30.4467L41.7654 30.1956L41.8745 28.8773L45 29.1317Z" fill="white"/>
</svg>
